STARTFONT 2.1
FONT -Adobe-Utopia-Bold-R-Normal--12-120-75-75-P-70-ISO10646-1
SIZE 12 75 75
FONTBOUNDINGBOX 17 21 -2 -6
COMMENT $Xorg: $
COMMENT ISO10646-1 extension by Markus Kuhn <mkuhn@acm.org>, 2001-03-20
STARTPROPERTIES 28
FOUNDRY "Adobe"
FAMILY_NAME "Utopia"
WEIGHT_NAME "Bold"
SLANT "R"
SETWIDTH_NAME "Normal"
ADD_STYLE_NAME ""
PIXEL_SIZE 12
POINT_SIZE 120
RESOLUTION_X 75
RESOLUTION_Y 75
SPACING "P"
AVERAGE_WIDTH 70
CHARSET_REGISTRY "ISO10646"
CHARSET_ENCODING "1"
CAP_HEIGHT 9
X_HEIGHT 6
RELATIVE_SETWIDTH 50
RELATIVE_WEIGHT 70
WEIGHT 218
FACE_NAME "Utopia Bold"
COPYRIGHT "Copyright (c) 1989, 1991 Adobe Systems Incorporated.  All rights reserved."
NOTICE "Utopia is a registered trademark of Adobe Systems Incorporated."
DESTINATION 0
FONT_ASCENT 10
FONT_DESCENT 3
DEFAULT_CHAR 0
_ADOBE_PSFONT "Utopia-Bold"
_DEC_DEVICE_FONTNAMES "PS=Utopia-Bold"
ENDPROPERTIES
CHARS 756
STARTCHAR char0
ENCODING 0
SWIDTH 807 0
DWIDTH 10 0
BBX 9 9 0 0
BITMAP
AA80
0000
8080
0000
8080
0000
8080
0000
AA80
ENDCHAR
STARTCHAR space
ENCODING 32
SWIDTH 210 0
DWIDTH 3 0
BBX 0 0 0 0
BITMAP
ENDCHAR
STARTCHAR exclam
ENCODING 33
SWIDTH 278 0
DWIDTH 3 0
BBX 2 9 0 0
BITMAP
C0
C0
C0
C0
C0
C0
00
C0
C0
ENDCHAR
STARTCHAR quotedbl
ENCODING 34
SWIDTH 473 0
DWIDTH 6 0
BBX 3 4 1 5
BITMAP
A0
A0
A0
A0
ENDCHAR
STARTCHAR numbersign
ENCODING 35
SWIDTH 560 0
DWIDTH 7 0
BBX 7 8 0 1
BITMAP
14
14
7E
28
28
FC
50
50
ENDCHAR
STARTCHAR dollar
ENCODING 36
SWIDTH 560 0
DWIDTH 7 0
BBX 6 11 0 -1
BITMAP
10
78
DC
D4
F0
78
3C
AC
EC
78
20
ENDCHAR
STARTCHAR percent
ENCODING 37
SWIDTH 887 0
DWIDTH 11 0
BBX 10 9 0 0
BITMAP
6100
9E00
9200
9400
6980
0A40
1240
2240
2180
ENDCHAR
STARTCHAR ampersand
ENCODING 38
SWIDTH 748 0
DWIDTH 9 0
BBX 8 9 0 0
BITMAP
18
34
34
18
39
6D
C6
E6
7B
ENDCHAR
STARTCHAR quotesingle
ENCODING 39
SWIDTH 252 0
DWIDTH 3 0
BBX 1 4 0 5
BITMAP
80
80
80
80
ENDCHAR
STARTCHAR parenleft
ENCODING 40
SWIDTH 365 0
DWIDTH 5 0
BBX 4 11 0 -2
BITMAP
30
60
60
C0
C0
C0
C0
C0
60
60
30
ENDCHAR
STARTCHAR parenright
ENCODING 41
SWIDTH 365 0
DWIDTH 5 0
BBX 4 11 0 -2
BITMAP
C0
60
60
30
30
30
30
30
60
60
C0
ENDCHAR
STARTCHAR asterisk
ENCODING 42
SWIDTH 442 0
DWIDTH 6 0
BBX 5 5 0 4
BITMAP
20
A8
70
A8
20
ENDCHAR
STARTCHAR plus
ENCODING 43
SWIDTH 600 0
DWIDTH 7 0
BBX 6 5 0 1
BITMAP
30
30
FC
30
30
ENDCHAR
STARTCHAR comma
ENCODING 44
SWIDTH 280 0
DWIDTH 3 0
BBX 2 4 0 -2
BITMAP
C0
C0
40
80
ENDCHAR
STARTCHAR hyphen
ENCODING 45
SWIDTH 392 0
DWIDTH 5 0
BBX 3 1 1 3
BITMAP
E0
ENDCHAR
STARTCHAR period
ENCODING 46
SWIDTH 280 0
DWIDTH 3 0
BBX 2 2 0 0
BITMAP
C0
C0
ENDCHAR
STARTCHAR slash
ENCODING 47
SWIDTH 378 0
DWIDTH 5 0
BBX 4 9 0 0
BITMAP
30
30
30
60
60
60
C0
C0
C0
ENDCHAR
STARTCHAR zero
ENCODING 48
SWIDTH 560 0
DWIDTH 7 0
BBX 6 9 0 0
BITMAP
78
CC
CC
CC
CC
CC
CC
CC
78
ENDCHAR
STARTCHAR one
ENCODING 49
SWIDTH 560 0
DWIDTH 7 0
BBX 6 9 0 0
BITMAP
30
F0
30
30
30
30
30
30
FC
ENDCHAR
STARTCHAR two
ENCODING 50
SWIDTH 560 0
DWIDTH 7 0
BBX 6 9 0 0
BITMAP
78
CC
CC
0C
18
60
C4
FC
FC
ENDCHAR
STARTCHAR three
ENCODING 51
SWIDTH 560 0
DWIDTH 7 0
BBX 6 9 0 0
BITMAP
78
CC
CC
0C
38
0C
CC
CC
78
ENDCHAR
STARTCHAR four
ENCODING 52
SWIDTH 560 0
DWIDTH 7 0
BBX 6 9 0 0
BITMAP
30
30
70
68
58
98
FC
18
3C
ENDCHAR
STARTCHAR five
ENCODING 53
SWIDTH 560 0
DWIDTH 7 0
BBX 6 9 0 0
BITMAP
FC
F8
80
F8
9C
0C
CC
CC
78
ENDCHAR
STARTCHAR six
ENCODING 54
SWIDTH 560 0
DWIDTH 7 0
BBX 6 9 0 0
BITMAP
78
CC
CC
C0
F8
CC
CC
CC
78
ENDCHAR
STARTCHAR seven
ENCODING 55
SWIDTH 560 0
DWIDTH 7 0
BBX 6 9 0 0
BITMAP
FC
FC
88
08
10
10
30
30
30
ENDCHAR
STARTCHAR eight
ENCODING 56
SWIDTH 560 0
DWIDTH 7 0
BBX 6 9 0 0
BITMAP
78
CC
CC
CC
78
CC
CC
CC
78
ENDCHAR
STARTCHAR nine
ENCODING 57
SWIDTH 560 0
DWIDTH 7 0
BBX 6 9 0 0
BITMAP
78
CC
CC
CC
7C
0C
CC
CC
78
ENDCHAR
STARTCHAR colon
ENCODING 58
SWIDTH 280 0
DWIDTH 3 0
BBX 2 6 0 0
BITMAP
C0
C0
00
00
C0
C0
ENDCHAR
STARTCHAR semicolon
ENCODING 59
SWIDTH 280 0
DWIDTH 3 0
BBX 2 8 0 -2
BITMAP
C0
C0
00
00
C0
C0
40
80
ENDCHAR
STARTCHAR less
ENCODING 60
SWIDTH 600 0
DWIDTH 7 0
BBX 6 5 0 1
BITMAP
0C
30
C0
30
0C
ENDCHAR
STARTCHAR equal
ENCODING 61
SWIDTH 600 0
DWIDTH 7 0
BBX 6 3 0 2
BITMAP
FC
00
FC
ENDCHAR
STARTCHAR greater
ENCODING 62
SWIDTH 600 0
DWIDTH 7 0
BBX 6 5 0 1
BITMAP
C0
30
0C
30
C0
ENDCHAR
STARTCHAR question
ENCODING 63
SWIDTH 456 0
DWIDTH 6 0
BBX 5 9 0 0
BITMAP
70
D8
58
30
60
70
00
60
60
ENDCHAR
STARTCHAR at
ENCODING 64
SWIDTH 833 0
DWIDTH 10 0
BBX 10 9 0 0
BITMAP
1F00
2080
4F40
9B40
B640
B680
BB00
4000
3F00
ENDCHAR
STARTCHAR A
ENCODING 65
SWIDTH 644 0
DWIDTH 8 0
BBX 9 9 -1 0
BITMAP
0800
1C00
1C00
2E00
2600
3E00
4700
4300
E780
ENDCHAR
STARTCHAR B
ENCODING 66
SWIDTH 683 0
DWIDTH 9 0
BBX 8 9 0 0
BITMAP
FE
63
63
66
7E
63
63
67
FE
ENDCHAR
STARTCHAR C
ENCODING 67
SWIDTH 689 0
DWIDTH 9 0
BBX 8 9 0 0
BITMAP
3E
63
E0
C0
C0
C0
E0
63
3E
ENDCHAR
STARTCHAR D
ENCODING 68
SWIDTH 777 0
DWIDTH 10 0
BBX 9 9 0 0
BITMAP
FE00
6300
6380
6180
6180
6180
6380
6300
FE00
ENDCHAR
STARTCHAR E
ENCODING 69
SWIDTH 629 0
DWIDTH 8 0
BBX 7 9 0 0
BITMAP
FE
62
60
64
7C
64
60
62
FE
ENDCHAR
STARTCHAR F
ENCODING 70
SWIDTH 593 0
DWIDTH 8 0
BBX 7 9 0 0
BITMAP
FE
62
60
64
7C
64
60
60
F0
ENDCHAR
STARTCHAR G
ENCODING 71
SWIDTH 726 0
DWIDTH 9 0
BBX 9 9 0 0
BITMAP
3E00
6300
E000
C000
C000
C780
E300
6300
3E00
ENDCHAR
STARTCHAR H
ENCODING 72
SWIDTH 807 0
DWIDTH 10 0
BBX 9 9 0 0
BITMAP
F780
6300
6300
6300
7F00
6300
6300
6300
F780
ENDCHAR
STARTCHAR I
ENCODING 73
SWIDTH 384 0
DWIDTH 5 0
BBX 4 9 0 0
BITMAP
F0
60
60
60
60
60
60
60
F0
ENDCHAR
STARTCHAR J
ENCODING 74
SWIDTH 386 0
DWIDTH 5 0
BBX 4 11 0 -2
BITMAP
F0
60
60
60
60
60
60
60
60
60
C0
ENDCHAR
STARTCHAR K
ENCODING 75
SWIDTH 707 0
DWIDTH 9 0
BBX 9 9 0 0
BITMAP
F700
6600
6400
6800
7C00
6C00
6600
6700
F380
ENDCHAR
STARTCHAR L
ENCODING 76
SWIDTH 585 0
DWIDTH 7 0
BBX 7 9 0 0
BITMAP
F0
60
60
60
60
60
62
66
FE
ENDCHAR
STARTCHAR M
ENCODING 77
SWIDTH 918 0
DWIDTH 12 0
BBX 11 9 0 0
BITMAP
F1E0
71C0
71C0
5AC0
5AC0
5AC0
4CC0
4CC0
EDE0
ENDCHAR
STARTCHAR N
ENCODING 78
SWIDTH 739 0
DWIDTH 9 0
BBX 9 9 0 0
BITMAP
E380
7100
7100
5900
5D00
4D00
4700
4700
E300
ENDCHAR
STARTCHAR O
ENCODING 79
SWIDTH 768 0
DWIDTH 10 0
BBX 9 9 0 0
BITMAP
3E00
6300
E380
C180
C180
C180
E380
6300
3E00
ENDCHAR
STARTCHAR P
ENCODING 80
SWIDTH 650 0
DWIDTH 8 0
BBX 8 9 0 0
BITMAP
FE
63
63
63
7E
60
60
60
F0
ENDCHAR
STARTCHAR Q
ENCODING 81
SWIDTH 768 0
DWIDTH 10 0
BBX 9 11 0 -2
BITMAP
3E00
6300
E380
C180
C180
C180
E380
6300
3E00
0E00
0780
ENDCHAR
STARTCHAR R
ENCODING 82
SWIDTH 684 0
DWIDTH 9 0
BBX 9 9 0 0
BITMAP
FE00
6300
6300
6600
7E00
6600
6300
6300
F380
ENDCHAR
STARTCHAR S
ENCODING 83
SWIDTH 561 0
DWIDTH 7 0
BBX 6 9 0 0
BITMAP
78
CC
C0
F0
78
1C
0C
CC
78
ENDCHAR
STARTCHAR T
ENCODING 84
SWIDTH 624 0
DWIDTH 8 0
BBX 8 9 0 0
BITMAP
FF
99
18
18
18
18
18
18
3C
ENDCHAR
STARTCHAR U
ENCODING 85
SWIDTH 786 0
DWIDTH 10 0
BBX 9 9 0 0
BITMAP
F780
6300
6300
6300
6300
6300
6300
7700
3E00
ENDCHAR
STARTCHAR V
ENCODING 86
SWIDTH 645 0
DWIDTH 8 0
BBX 9 9 -1 0
BITMAP
F380
6100
7100
3200
3200
3A00
1C00
1C00
0800
ENDCHAR
STARTCHAR W
ENCODING 87
SWIDTH 933 0
DWIDTH 12 0
BBX 13 9 -1 0
BITMAP
F338
6310
6310
35A0
35A0
35A0
3DE0
18C0
18C0
ENDCHAR
STARTCHAR X
ENCODING 88
SWIDTH 634 0
DWIDTH 8 0
BBX 7 9 0 0
BITMAP
F6
64
64
38
38
38
4C
4C
DE
ENDCHAR
STARTCHAR Y
ENCODING 89
SWIDTH 617 0
DWIDTH 8 0
BBX 8 9 0 0
BITMAP
F7
62
62
34
34
18
18
18
3C
ENDCHAR
STARTCHAR Z
ENCODING 90
SWIDTH 614 0
DWIDTH 8 0
BBX 7 9 0 0
BITMAP
FE
8E
0C
18
38
30
60
E2
FE
ENDCHAR
STARTCHAR bracketleft
ENCODING 91
SWIDTH 335 0
DWIDTH 4 0
BBX 3 11 0 -2
BITMAP
E0
C0
C0
C0
C0
C0
C0
C0
C0
C0
E0
ENDCHAR
STARTCHAR backslash
ENCODING 92
SWIDTH 379 0
DWIDTH 5 0
BBX 4 9 0 0
BITMAP
C0
C0
C0
60
60
60
30
30
30
ENDCHAR
STARTCHAR bracketright
ENCODING 93
SWIDTH 335 0
DWIDTH 4 0
BBX 3 11 0 -2
BITMAP
E0
60
60
60
60
60
60
60
60
60
E0
ENDCHAR
STARTCHAR asciicircum
ENCODING 94
SWIDTH 600 0
DWIDTH 7 0
BBX 5 6 1 3
BITMAP
20
20
50
50
88
88
ENDCHAR
STARTCHAR underscore
ENCODING 95
SWIDTH 500 0
DWIDTH 6 0
BBX 6 1 0 -2
BITMAP
FC
ENDCHAR
STARTCHAR grave
ENCODING 96
SWIDTH 430 0
DWIDTH 5 0
BBX 3 2 0 7
BITMAP
C0
60
ENDCHAR
STARTCHAR a
ENCODING 97
SWIDTH 544 0
DWIDTH 7 0
BBX 6 6 1 0
BITMAP
70
D8
38
D8
D8
EC
ENDCHAR
STARTCHAR b
ENCODING 98
SWIDTH 605 0
DWIDTH 7 0
BBX 7 10 -1 0
BITMAP
60
E0
60
60
7C
6E
66
66
66
7C
ENDCHAR
STARTCHAR c
ENCODING 99
SWIDTH 494 0
DWIDTH 6 0
BBX 5 6 0 0
BITMAP
70
D8
C0
C0
E8
70
ENDCHAR
STARTCHAR d
ENCODING 100
SWIDTH 605 0
DWIDTH 8 0
BBX 7 10 0 0
BITMAP
0C
1C
0C
0C
7C
CC
CC
CC
EC
7E
ENDCHAR
STARTCHAR e
ENCODING 101
SWIDTH 519 0
DWIDTH 6 0
BBX 5 6 0 0
BITMAP
70
D8
F8
C0
E8
70
ENDCHAR
STARTCHAR f
ENCODING 102
SWIDTH 342 0
DWIDTH 4 0
BBX 5 10 0 0
BITMAP
30
58
60
60
F0
60
60
60
60
F0
ENDCHAR
STARTCHAR g
ENCODING 103
SWIDTH 533 0
DWIDTH 7 0
BBX 6 9 0 -3
BITMAP
7C
D8
D8
D8
60
78
9C
CC
78
ENDCHAR
STARTCHAR h
ENCODING 104
SWIDTH 631 0
DWIDTH 8 0
BBX 8 10 0 0
BITMAP
60
E0
60
60
6C
7E
66
66
66
F7
ENDCHAR
STARTCHAR i
ENCODING 105
SWIDTH 316 0
DWIDTH 4 0
BBX 4 9 0 0
BITMAP
60
60
00
E0
60
60
60
60
F0
ENDCHAR
STARTCHAR j
ENCODING 106
SWIDTH 316 0
DWIDTH 4 0
BBX 4 12 -1 -3
BITMAP
30
30
00
70
30
30
30
30
30
30
70
E0
ENDCHAR
STARTCHAR k
ENCODING 107
SWIDTH 582 0
DWIDTH 7 0
BBX 7 10 0 0
BITMAP
60
E0
60
60
6E
6C
78
78
6C
EE
ENDCHAR
STARTCHAR l
ENCODING 108
SWIDTH 309 0
DWIDTH 4 0
BBX 4 10 0 0
BITMAP
60
E0
60
60
60
60
60
60
60
F0
ENDCHAR
STARTCHAR m
ENCODING 109
SWIDTH 948 0
DWIDTH 12 0
BBX 12 6 0 0
BITMAP
FDC0
6EE0
6660
6660
6660
F770
ENDCHAR
STARTCHAR n
ENCODING 110
SWIDTH 638 0
DWIDTH 8 0
BBX 8 6 0 0
BITMAP
FC
6E
66
66
66
F7
ENDCHAR
STARTCHAR o
ENCODING 111
SWIDTH 585 0
DWIDTH 7 0
BBX 6 6 0 0
BITMAP
78
DC
CC
CC
EC
78
ENDCHAR
STARTCHAR p
ENCODING 112
SWIDTH 615 0
DWIDTH 8 0
BBX 7 9 0 -3
BITMAP
FC
6E
66
66
66
7C
60
60
F0
ENDCHAR
STARTCHAR q
ENCODING 113
SWIDTH 597 0
DWIDTH 7 0
BBX 7 9 0 -3
BITMAP
7C
CC
CC
CC
EC
7C
0C
0C
1E
ENDCHAR
STARTCHAR r
ENCODING 114
SWIDTH 440 0
DWIDTH 6 0
BBX 5 6 0 0
BITMAP
D8
78
60
60
60
F0
ENDCHAR
STARTCHAR s
ENCODING 115
SWIDTH 446 0
DWIDTH 6 0
BBX 5 6 0 0
BITMAP
78
C8
F0
78
98
F0
ENDCHAR
STARTCHAR t
ENCODING 116
SWIDTH 370 0
DWIDTH 4 0
BBX 5 8 -1 0
BITMAP
20
60
F8
60
60
60
60
38
ENDCHAR
STARTCHAR u
ENCODING 117
SWIDTH 629 0
DWIDTH 8 0
BBX 8 6 0 0
BITMAP
EE
66
66
66
76
3F
ENDCHAR
STARTCHAR v
ENCODING 118
SWIDTH 520 0
DWIDTH 6 0
BBX 7 6 -1 0
BITMAP
EE
64
74
38
38
10
ENDCHAR
STARTCHAR w
ENCODING 119
SWIDTH 774 0
DWIDTH 10 0
BBX 11 6 -1 0
BITMAP
E4E0
6640
7640
3B80
3B80
1100
ENDCHAR
STARTCHAR x
ENCODING 120
SWIDTH 522 0
DWIDTH 7 0
BBX 6 6 0 0
BITMAP
EC
68
70
38
58
DC
ENDCHAR
STARTCHAR y
ENCODING 121
SWIDTH 524 0
DWIDTH 6 0
BBX 7 9 -1 -3
BITMAP
EE
64
74
38
38
10
10
60
60
ENDCHAR
STARTCHAR z
ENCODING 122
SWIDTH 483 0
DWIDTH 6 0
BBX 5 6 0 0
BITMAP
F8
B8
30
60
E8
F8
ENDCHAR
STARTCHAR braceleft
ENCODING 123
SWIDTH 365 0
DWIDTH 4 0
BBX 4 11 -1 -2
BITMAP
30
60
60
60
60
C0
60
60
60
60
30
ENDCHAR
STARTCHAR bar
ENCODING 124
SWIDTH 284 0
DWIDTH 3 0
BBX 2 9 0 0
BITMAP
C0
C0
C0
C0
C0
C0
C0
C0
C0
ENDCHAR
STARTCHAR braceright
ENCODING 125
SWIDTH 365 0
DWIDTH 4 0
BBX 4 11 0 -2
BITMAP
C0
60
60
60
60
30
60
60
60
60
C0
ENDCHAR
STARTCHAR asciitilde
ENCODING 126
SWIDTH 600 0
DWIDTH 7 0
BBX 6 2 0 3
BITMAP
74
B8
ENDCHAR
STARTCHAR space
ENCODING 160
SWIDTH 210 0
DWIDTH 3 0
BBX 0 0 0 0
BITMAP
ENDCHAR
STARTCHAR exclamdown
ENCODING 161
SWIDTH 278 0
DWIDTH 3 0
BBX 2 9 0 -3
BITMAP
C0
C0
00
C0
C0
C0
C0
C0
C0
ENDCHAR
STARTCHAR cent
ENCODING 162
SWIDTH 560 0
DWIDTH 7 0
BBX 6 9 0 0
BITMAP
10
78
DC
D0
D0
D0
F4
78
10
ENDCHAR
STARTCHAR sterling
ENCODING 163
SWIDTH 560 0
DWIDTH 7 0
BBX 6 9 0 0
BITMAP
78
C8
C0
60
F8
60
64
FC
FC
ENDCHAR
STARTCHAR currency
ENCODING 164
SWIDTH 560 0
DWIDTH 7 0
BBX 6 7 0 1
BITMAP
CC
78
CC
84
CC
78
CC
ENDCHAR
STARTCHAR yen
ENCODING 165
SWIDTH 560 0
DWIDTH 7 0
BBX 6 9 0 0
BITMAP
EC
C4
68
68
FC
30
FC
30
78
ENDCHAR
STARTCHAR brokenbar
ENCODING 166
SWIDTH 284 0
DWIDTH 3 0
BBX 2 9 0 0
BITMAP
C0
C0
C0
C0
00
C0
C0
C0
C0
ENDCHAR
STARTCHAR section
ENCODING 167
SWIDTH 566 0
DWIDTH 7 0
BBX 6 11 0 -2
BITMAP
78
CC
E0
78
9C
E4
78
1C
0C
C8
70
ENDCHAR
STARTCHAR dieresis
ENCODING 168
SWIDTH 430 0
DWIDTH 6 0
BBX 5 2 0 7
BITMAP
D8
D8
ENDCHAR
STARTCHAR copyright
ENCODING 169
SWIDTH 800 0
DWIDTH 10 0
BBX 9 9 0 0
BITMAP
3E00
4100
9E80
B280
A080
B280
9C80
4100
3E00
ENDCHAR
STARTCHAR ordfeminine
ENCODING 170
SWIDTH 405 0
DWIDTH 5 0
BBX 5 5 0 3
BITMAP
60
B0
70
B0
D8
ENDCHAR
STARTCHAR guillemotleft
ENCODING 171
SWIDTH 487 0
DWIDTH 6 0
BBX 6 5 0 1
BITMAP
24
48
D8
48
24
ENDCHAR
STARTCHAR logicalnot
ENCODING 172
SWIDTH 600 0
DWIDTH 7 0
BBX 6 4 0 1
BITMAP
FC
0C
0C
0C
ENDCHAR
STARTCHAR hyphen
ENCODING 173
SWIDTH 392 0
DWIDTH 5 0
BBX 3 1 1 3
BITMAP
E0
ENDCHAR
STARTCHAR registered
ENCODING 174
SWIDTH 800 0
DWIDTH 10 0
BBX 9 9 0 0
BITMAP
3E00
4100
BC80
9480
9880
9480
B680
4100
3E00
ENDCHAR
STARTCHAR macron
ENCODING 175
SWIDTH 430 0
DWIDTH 5 0
BBX 4 1 0 7
BITMAP
F0
ENDCHAR
STARTCHAR degree
ENCODING 176
SWIDTH 396 0
DWIDTH 5 0
BBX 4 4 0 5
BITMAP
60
90
90
60
ENDCHAR
STARTCHAR plusminus
ENCODING 177
SWIDTH 600 0
DWIDTH 7 0
BBX 6 6 0 0
BITMAP
30
30
FC
30
30
FC
ENDCHAR
STARTCHAR twosuperior
ENCODING 178
SWIDTH 402 0
DWIDTH 5 0
BBX 4 6 0 3
BITMAP
E0
B0
30
40
F0
F0
ENDCHAR
STARTCHAR threesuperior
ENCODING 179
SWIDTH 402 0
DWIDTH 5 0
BBX 4 6 0 3
BITMAP
E0
B0
60
30
B0
E0
ENDCHAR
STARTCHAR acute
ENCODING 180
SWIDTH 430 0
DWIDTH 5 0
BBX 3 2 0 7
BITMAP
60
C0
ENDCHAR
STARTCHAR mu
ENCODING 181
SWIDTH 629 0
DWIDTH 8 0
BBX 8 9 0 -3
BITMAP
EE
66
66
66
76
7F
40
60
60
ENDCHAR
STARTCHAR paragraph
ENCODING 182
SWIDTH 552 0
DWIDTH 7 0
BBX 6 11 0 -2
BITMAP
6C
E8
E8
E8
E8
68
08
08
08
08
38
ENDCHAR
STARTCHAR periodcentered
ENCODING 183
SWIDTH 280 0
DWIDTH 3 0
BBX 2 2 0 3
BITMAP
C0
C0
ENDCHAR
STARTCHAR cedilla
ENCODING 184
SWIDTH 430 0
DWIDTH 5 0
BBX 2 3 1 -3
BITMAP
80
40
C0
ENDCHAR
STARTCHAR onesuperior
ENCODING 185
SWIDTH 402 0
DWIDTH 5 0
BBX 4 6 0 3
BITMAP
60
E0
60
60
60
F0
ENDCHAR
STARTCHAR ordmasculine
ENCODING 186
SWIDTH 427 0
DWIDTH 5 0
BBX 5 5 0 3
BITMAP
70
D8
D8
D8
70
ENDCHAR
STARTCHAR guillemotright
ENCODING 187
SWIDTH 487 0
DWIDTH 6 0
BBX 6 5 0 1
BITMAP
90
48
6C
48
90
ENDCHAR
STARTCHAR onequarter
ENCODING 188
SWIDTH 900 0
DWIDTH 11 0
BBX 10 9 0 0
BITMAP
6100
E200
6200
6400
6A80
EB80
1580
27C0
2180
ENDCHAR
STARTCHAR onehalf
ENCODING 189
SWIDTH 900 0
DWIDTH 11 0
BBX 10 9 0 0
BITMAP
6100
E200
6200
6780
6AC0
E8C0
1100
23C0
23C0
ENDCHAR
STARTCHAR threequarters
ENCODING 190
SWIDTH 900 0
DWIDTH 11 0
BBX 10 9 0 0
BITMAP
E100
B200
6200
3400
BA80
EB80
1580
27C0
2180
ENDCHAR
STARTCHAR questiondown
ENCODING 191
SWIDTH 456 0
DWIDTH 6 0
BBX 5 9 0 -3
BITMAP
30
30
00
70
30
60
D0
D8
70
ENDCHAR
STARTCHAR Agrave
ENCODING 192
SWIDTH 644 0
DWIDTH 8 0
BBX 9 10 -1 0
BITMAP
1800
0C00
0000
0800
1C00
1C00
2600
3E00
4300
E780
ENDCHAR
STARTCHAR Aacute
ENCODING 193
SWIDTH 644 0
DWIDTH 8 0
BBX 9 10 -1 0
BITMAP
0C00
1800
0000
0800
1C00
1C00
2600
3E00
4300
E780
ENDCHAR
STARTCHAR Acircumflex
ENCODING 194
SWIDTH 644 0
DWIDTH 8 0
BBX 9 10 -1 0
BITMAP
1800
2C00
0000
0800
1C00
1C00
2600
3E00
4300
E780
ENDCHAR
STARTCHAR Atilde
ENCODING 195
SWIDTH 644 0
DWIDTH 8 0
BBX 9 10 -1 0
BITMAP
1A00
2C00
0000
0800
1C00
1C00
2600
3E00
4300
E780
ENDCHAR
STARTCHAR Adieresis
ENCODING 196
SWIDTH 644 0
DWIDTH 8 0
BBX 9 10 -1 0
BITMAP
3600
3600
0000
0800
1C00
1C00
2600
3E00
4300
E780
ENDCHAR
STARTCHAR Aring
ENCODING 197
SWIDTH 644 0
DWIDTH 8 0
BBX 9 10 -1 0
BITMAP
1800
2400
1800
0800
1C00
1C00
2600
3E00
4300
E780
ENDCHAR
STARTCHAR AE
ENCODING 198
SWIDTH 879 0
DWIDTH 11 0
BBX 11 9 -1 0
BITMAP
1FE0
0E20
1600
1640
27C0
3E40
4600
4620
EFE0
ENDCHAR
STARTCHAR Ccedilla
ENCODING 199
SWIDTH 689 0
DWIDTH 9 0
BBX 8 12 0 -3
BITMAP
3E
63
E0
C0
C0
C0
E0
63
3E
10
08
18
ENDCHAR
STARTCHAR Egrave
ENCODING 200
SWIDTH 629 0
DWIDTH 8 0
BBX 7 10 0 0
BITMAP
30
18
00
FE
62
60
7C
60
62
FE
ENDCHAR
STARTCHAR Eacute
ENCODING 201
SWIDTH 629 0
DWIDTH 8 0
BBX 7 10 0 0
BITMAP
18
30
00
FE
62
60
7C
60
62
FE
ENDCHAR
STARTCHAR Ecircumflex
ENCODING 202
SWIDTH 629 0
DWIDTH 8 0
BBX 7 10 0 0
BITMAP
30
58
00
FE
62
60
7C
60
62
FE
ENDCHAR
STARTCHAR Edieresis
ENCODING 203
SWIDTH 629 0
DWIDTH 8 0
BBX 7 10 0 0
BITMAP
6C
6C
00
FE
62
60
7C
60
62
FE
ENDCHAR
STARTCHAR Igrave
ENCODING 204
SWIDTH 384 0
DWIDTH 5 0
BBX 4 10 0 0
BITMAP
C0
60
00
F0
60
60
60
60
60
F0
ENDCHAR
STARTCHAR Iacute
ENCODING 205
SWIDTH 384 0
DWIDTH 5 0
BBX 4 10 0 0
BITMAP
60
C0
00
F0
60
60
60
60
60
F0
ENDCHAR
STARTCHAR Icircumflex
ENCODING 206
SWIDTH 384 0
DWIDTH 5 0
BBX 4 10 0 0
BITMAP
60
B0
00
F0
60
60
60
60
60
F0
ENDCHAR
STARTCHAR Idieresis
ENCODING 207
SWIDTH 384 0
DWIDTH 5 0
BBX 5 10 0 0
BITMAP
D8
D8
00
F0
60
60
60
60
60
F0
ENDCHAR
STARTCHAR Eth
ENCODING 208
SWIDTH 783 0
DWIDTH 10 0
BBX 9 9 0 0
BITMAP
FE00
6300
6380
6180
F180
6180
6380
6300
FE00
ENDCHAR
STARTCHAR Ntilde
ENCODING 209
SWIDTH 739 0
DWIDTH 9 0
BBX 9 10 0 0
BITMAP
3400
5800
0000
E380
7100
7900
5D00
4F00
4700
E300
ENDCHAR
STARTCHAR Ograve
ENCODING 210
SWIDTH 768 0
DWIDTH 10 0
BBX 9 10 0 0
BITMAP
1800
0C00
0000
3E00
6300
C180
C180
C180
6300
3E00
ENDCHAR
STARTCHAR Oacute
ENCODING 211
SWIDTH 768 0
DWIDTH 10 0
BBX 9 10 0 0
BITMAP
0C00
1800
0000
3E00
6300
C180
C180
C180
6300
3E00
ENDCHAR
STARTCHAR Ocircumflex
ENCODING 212
SWIDTH 768 0
DWIDTH 10 0
BBX 9 10 0 0
BITMAP
1800
2C00
0000
3E00
6300
C180
C180
C180
6300
3E00
ENDCHAR
STARTCHAR Otilde
ENCODING 213
SWIDTH 768 0
DWIDTH 10 0
BBX 9 10 0 0
BITMAP
1A00
2C00
0000
3E00
6300
C180
C180
C180
6300
3E00
ENDCHAR
STARTCHAR Odieresis
ENCODING 214
SWIDTH 768 0
DWIDTH 10 0
BBX 9 10 0 0
BITMAP
3600
3600
0000
3E00
6300
C180
C180
C180
6300
3E00
ENDCHAR
STARTCHAR multiply
ENCODING 215
SWIDTH 600 0
DWIDTH 7 0
BBX 6 5 0 1
BITMAP
CC
78
30
78
CC
ENDCHAR
STARTCHAR Oslash
ENCODING 216
SWIDTH 768 0
DWIDTH 10 0
BBX 9 9 0 0
BITMAP
3E80
6300
E380
C580
C980
D180
E380
6300
BE00
ENDCHAR
STARTCHAR Ugrave
ENCODING 217
SWIDTH 786 0
DWIDTH 10 0
BBX 9 10 0 0
BITMAP
1800
0C00
0000
F780
6300
6300
6300
6300
7700
3E00
ENDCHAR
STARTCHAR Uacute
ENCODING 218
SWIDTH 786 0
DWIDTH 10 0
BBX 9 10 0 0
BITMAP
0C00
1800
0000
F780
6300
6300
6300
6300
7700
3E00
ENDCHAR
STARTCHAR Ucircumflex
ENCODING 219
SWIDTH 786 0
DWIDTH 10 0
BBX 9 10 0 0
BITMAP
1800
2C00
0000
F780
6300
6300
6300
6300
7700
3E00
ENDCHAR
STARTCHAR Udieresis
ENCODING 220
SWIDTH 786 0
DWIDTH 10 0
BBX 9 10 0 0
BITMAP
3600
3600
0000
F780
6300
6300
6300
6300
7700
3E00
ENDCHAR
STARTCHAR Yacute
ENCODING 221
SWIDTH 617 0
DWIDTH 8 0
BBX 8 10 0 0
BITMAP
0C
18
00
F7
62
34
34
18
18
3C
ENDCHAR
STARTCHAR Thorn
ENCODING 222
SWIDTH 640 0
DWIDTH 8 0
BBX 8 9 0 0
BITMAP
F0
60
7E
63
63
63
7E
60
F0
ENDCHAR
STARTCHAR germandbls
ENCODING 223
SWIDTH 662 0
DWIDTH 8 0
BBX 8 10 0 0
BITMAP
3C
66
66
64
6C
6E
67
63
6B
EE
ENDCHAR
STARTCHAR agrave
ENCODING 224
SWIDTH 544 0
DWIDTH 7 0
BBX 6 9 0 0
BITMAP
60
30
00
70
D8
38
D8
D8
EC
ENDCHAR
STARTCHAR aacute
ENCODING 225
SWIDTH 544 0
DWIDTH 7 0
BBX 6 9 0 0
BITMAP
30
60
00
70
D8
38
D8
D8
EC
ENDCHAR
STARTCHAR acircumflex
ENCODING 226
SWIDTH 544 0
DWIDTH 7 0
BBX 6 9 0 0
BITMAP
60
B0
00
70
D8
38
D8
D8
EC
ENDCHAR
STARTCHAR atilde
ENCODING 227
SWIDTH 544 0
DWIDTH 7 0
BBX 6 9 0 0
BITMAP
68
B0
00
70
D8
38
D8
D8
EC
ENDCHAR
STARTCHAR adieresis
ENCODING 228
SWIDTH 544 0
DWIDTH 7 0
BBX 6 9 0 0
BITMAP
D8
D8
00
70
D8
38
D8
D8
EC
ENDCHAR
STARTCHAR aring
ENCODING 229
SWIDTH 544 0
DWIDTH 7 0
BBX 6 10 0 0
BITMAP
30
48
30
00
70
D8
38
D8
D8
EC
ENDCHAR
STARTCHAR ae
ENCODING 230
SWIDTH 806 0
DWIDTH 10 0
BBX 8 6 1 0
BITMAP
76
DB
3F
D8
DD
EE
ENDCHAR
STARTCHAR ccedilla
ENCODING 231
SWIDTH 494 0
DWIDTH 6 0
BBX 5 9 0 -3
BITMAP
70
D8
C0
C0
E8
70
40
20
60
ENDCHAR
STARTCHAR egrave
ENCODING 232
SWIDTH 519 0
DWIDTH 6 0
BBX 5 9 0 0
BITMAP
60
30
00
70
D8
F8
C0
E8
70
ENDCHAR
STARTCHAR eacute
ENCODING 233
SWIDTH 519 0
DWIDTH 6 0
BBX 5 9 0 0
BITMAP
30
60
00
70
D8
F8
C0
E8
70
ENDCHAR
STARTCHAR ecircumflex
ENCODING 234
SWIDTH 519 0
DWIDTH 6 0
BBX 5 9 0 0
BITMAP
60
B0
00
70
D8
F8
C0
E8
70
ENDCHAR
STARTCHAR edieresis
ENCODING 235
SWIDTH 519 0
DWIDTH 6 0
BBX 5 9 0 0
BITMAP
D8
D8
00
70
D8
F8
C0
E8
70
ENDCHAR
STARTCHAR igrave
ENCODING 236
SWIDTH 316 0
DWIDTH 4 0
BBX 4 9 0 0
BITMAP
C0
60
00
E0
60
60
60
60
F0
ENDCHAR
STARTCHAR iacute
ENCODING 237
SWIDTH 316 0
DWIDTH 4 0
BBX 4 9 0 0
BITMAP
60
C0
00
E0
60
60
60
60
F0
ENDCHAR
STARTCHAR icircumflex
ENCODING 238
SWIDTH 316 0
DWIDTH 4 0
BBX 4 9 0 0
BITMAP
60
B0
00
E0
60
60
60
60
F0
ENDCHAR
STARTCHAR idieresis
ENCODING 239
SWIDTH 316 0
DWIDTH 4 0
BBX 5 9 0 0
BITMAP
D8
D8
00
E0
60
60
60
60
F0
ENDCHAR
STARTCHAR eth
ENCODING 240
SWIDTH 585 0
DWIDTH 7 0
BBX 6 9 0 0
BITMAP
68
30
58
78
DC
CC
CC
EC
78
ENDCHAR
STARTCHAR ntilde
ENCODING 241
SWIDTH 638 0
DWIDTH 8 0
BBX 8 9 0 0
BITMAP
34
58
00
FC
6E
66
66
66
F7
ENDCHAR
STARTCHAR ograve
ENCODING 242
SWIDTH 585 0
DWIDTH 7 0
BBX 6 9 0 0
BITMAP
60
30
00
78
DC
CC
CC
EC
78
ENDCHAR
STARTCHAR oacute
ENCODING 243
SWIDTH 585 0
DWIDTH 7 0
BBX 6 9 0 0
BITMAP
30
60
00
78
DC
CC
CC
EC
78
ENDCHAR
STARTCHAR ocircumflex
ENCODING 244
SWIDTH 585 0
DWIDTH 7 0
BBX 6 9 0 0
BITMAP
30
58
00
78
DC
CC
CC
EC
78
ENDCHAR
STARTCHAR otilde
ENCODING 245
SWIDTH 585 0
DWIDTH 7 0
BBX 6 9 0 0
BITMAP
68
B0
00
78
DC
CC
CC
EC
78
ENDCHAR
STARTCHAR odieresis
ENCODING 246
SWIDTH 585 0
DWIDTH 7 0
BBX 6 9 0 0
BITMAP
D8
D8
00
78
DC
CC
CC
EC
78
ENDCHAR
STARTCHAR divide
ENCODING 247
SWIDTH 600 0
DWIDTH 7 0
BBX 6 7 0 0
BITMAP
30
30
00
FC
00
30
30
ENDCHAR
STARTCHAR oslash
ENCODING 248
SWIDTH 585 0
DWIDTH 7 0
BBX 6 8 0 -1
BITMAP
04
78
DC
CC
CC
EC
78
80
ENDCHAR
STARTCHAR ugrave
ENCODING 249
SWIDTH 629 0
DWIDTH 8 0
BBX 8 9 0 0
BITMAP
30
18
00
EE
66
66
66
76
3F
ENDCHAR
STARTCHAR uacute
ENCODING 250
SWIDTH 629 0
DWIDTH 8 0
BBX 8 9 0 0
BITMAP
18
30
00
EE
66
66
66
76
3F
ENDCHAR
STARTCHAR ucircumflex
ENCODING 251
SWIDTH 629 0
DWIDTH 8 0
BBX 8 9 0 0
BITMAP
18
2C
00
EE
66
66
66
76
3F
ENDCHAR
STARTCHAR udieresis
ENCODING 252
SWIDTH 629 0
DWIDTH 8 0
BBX 8 9 0 0
BITMAP
6C
6C
00
EE
66
66
66
76
3F
ENDCHAR
STARTCHAR yacute
ENCODING 253
SWIDTH 524 0
DWIDTH 6 0
BBX 7 12 -1 -3
BITMAP
18
30
00
EE
64
74
38
38
10
10
60
60
ENDCHAR
STARTCHAR thorn
ENCODING 254
SWIDTH 609 0
DWIDTH 8 0
BBX 7 12 0 -3
BITMAP
60
E0
60
7C
6E
66
66
66
7C
60
60
F0
ENDCHAR
STARTCHAR ydieresis
ENCODING 255
SWIDTH 524 0
DWIDTH 6 0
BBX 7 12 -1 -3
BITMAP
6C
6C
00
EE
64
74
38
38
10
10
60
60
ENDCHAR
STARTCHAR Amacron
ENCODING 256
SWIDTH 644 0
DWIDTH 8 0
BBX 9 11 -1 0
BITMAP
1E00
0000
0800
1C00
1C00
2E00
2600
3E00
4700
4300
E780
ENDCHAR
STARTCHAR amacron
ENCODING 257
SWIDTH 544 0
DWIDTH 7 0
BBX 6 8 1 0
BITMAP
78
00
70
D8
38
D8
D8
EC
ENDCHAR
STARTCHAR Abreve
ENCODING 258
SWIDTH 644 0
DWIDTH 8 0
BBX 9 12 -1 0
BITMAP
1200
0C00
0000
0800
1C00
1C00
2E00
2600
3E00
4700
4300
E780
ENDCHAR
STARTCHAR abreve
ENCODING 259
SWIDTH 544 0
DWIDTH 7 0
BBX 6 9 1 0
BITMAP
48
30
00
70
D8
38
D8
D8
EC
ENDCHAR
STARTCHAR Aogonek
ENCODING 260
SWIDTH 644 0
DWIDTH 8 0
BBX 9 12 -1 -3
BITMAP
0800
1C00
1C00
2E00
2600
3E00
4700
4300
E780
0800
1000
1C00
ENDCHAR
STARTCHAR aogonek
ENCODING 261
SWIDTH 544 0
DWIDTH 7 0
BBX 6 9 1 -3
BITMAP
70
D8
38
D8
D8
EC
20
40
70
ENDCHAR
STARTCHAR Cacute
ENCODING 262
SWIDTH 689 0
DWIDTH 9 0
BBX 8 12 0 0
BITMAP
0C
18
00
3E
63
E0
C0
C0
C0
E0
63
3E
ENDCHAR
STARTCHAR cacute
ENCODING 263
SWIDTH 494 0
DWIDTH 6 0
BBX 5 9 0 0
BITMAP
30
60
00
70
D8
C0
C0
E8
70
ENDCHAR
STARTCHAR Ccircumflex
ENCODING 264
SWIDTH 689 0
DWIDTH 9 0
BBX 8 12 0 0
BITMAP
18
2C
00
3E
63
E0
C0
C0
C0
E0
63
3E
ENDCHAR
STARTCHAR ccircumflex
ENCODING 265
SWIDTH 494 0
DWIDTH 6 0
BBX 5 9 0 0
BITMAP
60
B0
00
70
D8
C0
C0
E8
70
ENDCHAR
STARTCHAR Cdotaccent
ENCODING 266
SWIDTH 689 0
DWIDTH 9 0
BBX 8 12 0 0
BITMAP
18
18
00
3E
63
E0
C0
C0
C0
E0
63
3E
ENDCHAR
STARTCHAR cdotaccent
ENCODING 267
SWIDTH 494 0
DWIDTH 6 0
BBX 5 9 0 0
BITMAP
30
30
00
70
D8
C0
C0
E8
70
ENDCHAR
STARTCHAR Ccaron
ENCODING 268
SWIDTH 689 0
DWIDTH 9 0
BBX 8 12 0 0
BITMAP
34
18
00
3E
63
E0
C0
C0
C0
E0
63
3E
ENDCHAR
STARTCHAR ccaron
ENCODING 269
SWIDTH 494 0
DWIDTH 6 0
BBX 5 9 0 0
BITMAP
68
30
00
70
D8
C0
C0
E8
70
ENDCHAR
STARTCHAR Dcaron
ENCODING 270
SWIDTH 777 0
DWIDTH 10 0
BBX 9 12 0 0
BITMAP
3400
1800
0000
FE00
6300
6380
6180
6180
6180
6380
6300
FE00
ENDCHAR
STARTCHAR dcaron
ENCODING 271
SWIDTH 827 0
DWIDTH 11 0
BBX 10 10 0 0
BITMAP
0C00
1CC0
0CC0
0C40
7C80
CC00
CC00
CC00
EC00
7E00
ENDCHAR
STARTCHAR Dcroat
ENCODING 272
SWIDTH 783 0
DWIDTH 10 0
BBX 9 9 0 0
BITMAP
FE00
6300
6380
6180
F180
6180
6380
6300
FE00
ENDCHAR
STARTCHAR dcroat
ENCODING 273
SWIDTH 605 0
DWIDTH 8 0
BBX 7 10 0 0
BITMAP
0C
1C
1E
0C
7C
CC
CC
CC
EC
7E
ENDCHAR
STARTCHAR Emacron
ENCODING 274
SWIDTH 629 0
DWIDTH 8 0
BBX 7 11 0 0
BITMAP
78
00
FE
62
60
64
7C
64
60
62
FE
ENDCHAR
STARTCHAR emacron
ENCODING 275
SWIDTH 519 0
DWIDTH 6 0
BBX 5 8 0 0
BITMAP
78
00
70
D8
F8
C0
E8
70
ENDCHAR
STARTCHAR Ebreve
ENCODING 276
SWIDTH 629 0
DWIDTH 8 0
BBX 7 12 0 0
BITMAP
48
30
00
FE
62
60
64
7C
64
60
62
FE
ENDCHAR
STARTCHAR ebreve
ENCODING 277
SWIDTH 519 0
DWIDTH 6 0
BBX 5 9 0 0
BITMAP
48
30
00
70
D8
F8
C0
E8
70
ENDCHAR
STARTCHAR Edotaccent
ENCODING 278
SWIDTH 629 0
DWIDTH 8 0
BBX 7 12 0 0
BITMAP
30
30
00
FE
62
60
64
7C
64
60
62
FE
ENDCHAR
STARTCHAR edotaccent
ENCODING 279
SWIDTH 519 0
DWIDTH 6 0
BBX 5 9 0 0
BITMAP
30
30
00
70
D8
F8
C0
E8
70
ENDCHAR
STARTCHAR Eogonek
ENCODING 280
SWIDTH 629 0
DWIDTH 8 0
BBX 7 12 0 -3
BITMAP
FE
62
60
64
7C
64
60
62
FE
10
20
38
ENDCHAR
STARTCHAR eogonek
ENCODING 281
SWIDTH 519 0
DWIDTH 6 0
BBX 5 9 0 -3
BITMAP
70
D8
F8
C0
E8
70
20
40
70
ENDCHAR
STARTCHAR Ecaron
ENCODING 282
SWIDTH 629 0
DWIDTH 8 0
BBX 7 12 0 0
BITMAP
68
30
00
FE
62
60
64
7C
64
60
62
FE
ENDCHAR
STARTCHAR ecaron
ENCODING 283
SWIDTH 519 0
DWIDTH 6 0
BBX 5 9 0 0
BITMAP
68
30
00
70
D8
F8
C0
E8
70
ENDCHAR
STARTCHAR Gcircumflex
ENCODING 284
SWIDTH 726 0
DWIDTH 9 0
BBX 9 12 0 0
BITMAP
1800
2C00
0000
3E00
6300
E000
C000
C000
C780
E300
6300
3E00
ENDCHAR
STARTCHAR gcircumflex
ENCODING 285
SWIDTH 533 0
DWIDTH 7 0
BBX 6 12 0 -3
BITMAP
30
58
00
7C
D8
D8
D8
60
78
9C
CC
78
ENDCHAR
STARTCHAR Gbreve
ENCODING 286
SWIDTH 726 0
DWIDTH 9 0
BBX 9 12 0 0
BITMAP
2400
1800
0000
3E00
6300
E000
C000
C000
C780
E300
6300
3E00
ENDCHAR
STARTCHAR gbreve
ENCODING 287
SWIDTH 533 0
DWIDTH 7 0
BBX 6 12 0 -3
BITMAP
48
30
00
7C
D8
D8
D8
60
78
9C
CC
78
ENDCHAR
STARTCHAR Gdotaccent
ENCODING 288
SWIDTH 726 0
DWIDTH 9 0
BBX 9 12 0 0
BITMAP
1800
1800
0000
3E00
6300
E000
C000
C000
C780
E300
6300
3E00
ENDCHAR
STARTCHAR gdotaccent
ENCODING 289
SWIDTH 533 0
DWIDTH 7 0
BBX 6 12 0 -3
BITMAP
30
30
00
7C
D8
D8
D8
60
78
9C
CC
78
ENDCHAR
STARTCHAR Gcommaaccent
ENCODING 290
SWIDTH 726 0
DWIDTH 9 0
BBX 9 14 0 -5
BITMAP
3E00
6300
E000
C000
C000
C780
E300
6300
3E00
0000
1800
1800
0800
1000
ENDCHAR
STARTCHAR gcommaaccent
ENCODING 291
SWIDTH 533 0
DWIDTH 7 0
BBX 6 14 0 -3
BITMAP
10
20
30
30
00
7C
D8
D8
D8
60
78
9C
CC
78
ENDCHAR
STARTCHAR Hcircumflex
ENCODING 292
SWIDTH 807 0
DWIDTH 10 0
BBX 9 12 0 0
BITMAP
1800
2C00
0000
F780
6300
6300
6300
7F00
6300
6300
6300
F780
ENDCHAR
STARTCHAR hcircumflex
ENCODING 293
SWIDTH 631 0
DWIDTH 8 0
BBX 8 13 0 0
BITMAP
60
B0
00
60
E0
60
60
6C
7E
66
66
66
F7
ENDCHAR
STARTCHAR Hbar
ENCODING 294
SWIDTH 807 0
DWIDTH 10 0
BBX 9 9 0 0
BITMAP
F780
6300
FF80
6300
7F00
6300
6300
6300
F780
ENDCHAR
STARTCHAR hbar
ENCODING 295
SWIDTH 631 0
DWIDTH 8 0
BBX 8 10 0 0
BITMAP
60
E0
F0
60
6C
7E
66
66
66
F7
ENDCHAR
STARTCHAR Itilde
ENCODING 296
SWIDTH 384 0
DWIDTH 5 0
BBX 5 12 0 0
BITMAP
68
B0
00
F0
60
60
60
60
60
60
60
F0
ENDCHAR
STARTCHAR itilde
ENCODING 297
SWIDTH 316 0
DWIDTH 4 0
BBX 5 9 0 0
BITMAP
68
B0
00
E0
60
60
60
60
F0
ENDCHAR
STARTCHAR Imacron
ENCODING 298
SWIDTH 384 0
DWIDTH 5 0
BBX 4 11 0 0
BITMAP
F0
00
F0
60
60
60
60
60
60
60
F0
ENDCHAR
STARTCHAR imacron
ENCODING 299
SWIDTH 316 0
DWIDTH 4 0
BBX 4 8 0 0
BITMAP
F0
00
E0
60
60
60
60
F0
ENDCHAR
STARTCHAR Ibreve
ENCODING 300
SWIDTH 384 0
DWIDTH 5 0
BBX 4 12 0 0
BITMAP
90
60
00
F0
60
60
60
60
60
60
60
F0
ENDCHAR
STARTCHAR ibreve
ENCODING 301
SWIDTH 316 0
DWIDTH 4 0
BBX 4 9 0 0
BITMAP
90
60
00
E0
60
60
60
60
F0
ENDCHAR
STARTCHAR Iogonek
ENCODING 302
SWIDTH 384 0
DWIDTH 5 0
BBX 4 12 0 -3
BITMAP
F0
60
60
60
60
60
60
60
F0
20
40
70
ENDCHAR
STARTCHAR iogonek
ENCODING 303
SWIDTH 316 0
DWIDTH 4 0
BBX 4 12 0 -3
BITMAP
60
60
00
E0
60
60
60
60
F0
20
40
70
ENDCHAR
STARTCHAR Idotaccent
ENCODING 304
SWIDTH 384 0
DWIDTH 5 0
BBX 4 12 0 0
BITMAP
60
60
00
F0
60
60
60
60
60
60
60
F0
ENDCHAR
STARTCHAR dotlessi
ENCODING 305
SWIDTH 316 0
DWIDTH 4 0
BBX 4 6 0 0
BITMAP
E0
60
60
60
60
F0
ENDCHAR
STARTCHAR IJ
ENCODING 306
SWIDTH 751 0
DWIDTH 10 0
BBX 9 11 0 -2
BITMAP
F780
6300
6300
6300
6300
6300
6300
6300
F300
0300
0600
ENDCHAR
STARTCHAR ij
ENCODING 307
SWIDTH 616 0
DWIDTH 8 0
BBX 7 12 0 -3
BITMAP
66
66
00
EE
66
66
66
66
F6
06
0E
1C
ENDCHAR
STARTCHAR Jcircumflex
ENCODING 308
SWIDTH 386 0
DWIDTH 5 0
BBX 4 14 0 -2
BITMAP
60
B0
00
F0
60
60
60
60
60
60
60
60
60
C0
ENDCHAR
STARTCHAR jcircumflex
ENCODING 309
SWIDTH 316 0
DWIDTH 4 0
BBX 4 12 -1 -3
BITMAP
60
B0
00
70
30
30
30
30
30
30
70
E0
ENDCHAR
STARTCHAR Kcommaaccent
ENCODING 310
SWIDTH 707 0
DWIDTH 9 0
BBX 9 14 0 -5
BITMAP
F700
6600
6400
6800
7C00
6C00
6600
6700
F380
0000
1800
1800
0800
1000
ENDCHAR
STARTCHAR kcommaaccent
ENCODING 311
SWIDTH 582 0
DWIDTH 7 0
BBX 7 15 0 -5
BITMAP
60
E0
60
60
6E
6C
78
78
6C
EE
00
30
30
10
20
ENDCHAR
STARTCHAR kgreenlandic
ENCODING 312
SWIDTH 582 0
DWIDTH 7 0
BBX 7 6 0 0
BITMAP
6E
6C
78
78
6C
EE
ENDCHAR
STARTCHAR Lacute
ENCODING 313
SWIDTH 585 0
DWIDTH 7 0
BBX 7 12 0 0
BITMAP
30
60
00
F0
60
60
60
60
60
62
66
FE
ENDCHAR
STARTCHAR lacute
ENCODING 314
SWIDTH 309 0
DWIDTH 4 0
BBX 4 13 0 0
BITMAP
30
60
00
60
E0
60
60
60
60
60
60
60
F0
ENDCHAR
STARTCHAR Lcommaaccent
ENCODING 315
SWIDTH 585 0
DWIDTH 7 0
BBX 7 14 0 -5
BITMAP
F0
60
60
60
60
60
62
66
FE
00
18
18
08
10
ENDCHAR
STARTCHAR lcommaaccent
ENCODING 316
SWIDTH 309 0
DWIDTH 4 0
BBX 4 15 0 -5
BITMAP
60
E0
60
60
60
60
60
60
60
F0
00
60
60
20
40
ENDCHAR
STARTCHAR Lcaron
ENCODING 317
SWIDTH 808 0
DWIDTH 10 0
BBX 9 9 0 0
BITMAP
F180
6180
6080
6100
6000
6000
6200
6600
FE00
ENDCHAR
STARTCHAR lcaron
ENCODING 318
SWIDTH 546 0
DWIDTH 7 0
BBX 6 10 0 0
BITMAP
60
EC
6C
64
68
60
60
60
60
F0
ENDCHAR
STARTCHAR Ldot
ENCODING 319
SWIDTH 836 0
DWIDTH 10 0
BBX 9 9 0 0
BITMAP
F000
6000
6000
6000
6180
6180
6200
6600
FE00
ENDCHAR
STARTCHAR ldot
ENCODING 320
SWIDTH 574 0
DWIDTH 7 0
BBX 6 10 0 0
BITMAP
60
E0
60
60
60
6C
6C
60
60
F0
ENDCHAR
STARTCHAR Lslash
ENCODING 321
SWIDTH 591 0
DWIDTH 7 0
BBX 7 9 0 0
BITMAP
F0
60
68
70
60
E0
62
66
FE
ENDCHAR
STARTCHAR lslash
ENCODING 322
SWIDTH 321 0
DWIDTH 4 0
BBX 4 10 0 0
BITMAP
60
E0
60
60
70
E0
60
60
60
F0
ENDCHAR
STARTCHAR Nacute
ENCODING 323
SWIDTH 739 0
DWIDTH 9 0
BBX 9 12 0 0
BITMAP
0C00
1800
0000
E380
7100
7100
5900
5D00
4D00
4700
4700
E300
ENDCHAR
STARTCHAR nacute
ENCODING 324
SWIDTH 638 0
DWIDTH 8 0
BBX 8 9 0 0
BITMAP
0C
18
00
FC
6E
66
66
66
F7
ENDCHAR
STARTCHAR Ncommaaccent
ENCODING 325
SWIDTH 739 0
DWIDTH 9 0
BBX 9 14 0 -5
BITMAP
E380
7100
7100
5900
5D00
4D00
4700
4700
E300
0000
0C00
0C00
0400
0800
ENDCHAR
STARTCHAR ncommaaccent
ENCODING 326
SWIDTH 638 0
DWIDTH 8 0
BBX 8 11 0 -5
BITMAP
FC
6E
66
66
66
F7
00
18
18
08
10
ENDCHAR
STARTCHAR Ncaron
ENCODING 327
SWIDTH 739 0
DWIDTH 9 0
BBX 9 12 0 0
BITMAP
3400
1800
0000
E380
7100
7100
5900
5D00
4D00
4700
4700
E300
ENDCHAR
STARTCHAR ncaron
ENCODING 328
SWIDTH 638 0
DWIDTH 8 0
BBX 8 9 0 0
BITMAP
34
18
00
FC
6E
66
66
66
F7
ENDCHAR
STARTCHAR napostrophe
ENCODING 329
SWIDTH 877 0
DWIDTH 11 0
BBX 11 9 0 0
BITMAP
C000
C000
4000
9F80
0DC0
0CC0
0CC0
0CC0
1EE0
ENDCHAR
STARTCHAR Eng
ENCODING 330
SWIDTH 739 0
DWIDTH 9 0
BBX 9 12 0 -3
BITMAP
E380
7100
7100
5900
5D00
4D00
4700
4700
E300
0300
0700
0E00
ENDCHAR
STARTCHAR eng
ENCODING 331
SWIDTH 638 0
DWIDTH 8 0
BBX 7 9 0 -3
BITMAP
FC
6E
66
66
66
F6
06
0E
1C
ENDCHAR
STARTCHAR Omacron
ENCODING 332
SWIDTH 768 0
DWIDTH 10 0
BBX 9 11 0 0
BITMAP
1E00
0000
3E00
6300
E380
C180
C180
C180
E380
6300
3E00
ENDCHAR
STARTCHAR omacron
ENCODING 333
SWIDTH 585 0
DWIDTH 7 0
BBX 6 8 0 0
BITMAP
78
00
78
DC
CC
CC
EC
78
ENDCHAR
STARTCHAR Obreve
ENCODING 334
SWIDTH 768 0
DWIDTH 10 0
BBX 9 12 0 0
BITMAP
1200
0C00
0000
3E00
6300
E380
C180
C180
C180
E380
6300
3E00
ENDCHAR
STARTCHAR obreve
ENCODING 335
SWIDTH 585 0
DWIDTH 7 0
BBX 6 9 0 0
BITMAP
48
30
00
78
DC
CC
CC
EC
78
ENDCHAR
STARTCHAR Ohungarumlaut
ENCODING 336
SWIDTH 768 0
DWIDTH 10 0
BBX 9 12 0 0
BITMAP
0A00
1400
0000
3E00
6300
E380
C180
C180
C180
E380
6300
3E00
ENDCHAR
STARTCHAR ohungarumlaut
ENCODING 337
SWIDTH 585 0
DWIDTH 7 0
BBX 6 9 0 0
BITMAP
28
50
00
78
DC
CC
CC
EC
78
ENDCHAR
STARTCHAR OE
ENCODING 338
SWIDTH 1049 0
DWIDTH 13 0
BBX 12 9 0 0
BITMAP
3FF0
6310
E300
C320
C3E0
C320
E300
6310
3FF0
ENDCHAR
STARTCHAR oe
ENCODING 339
SWIDTH 866 0
DWIDTH 11 0
BBX 9 6 1 0
BITMAP
7700
DD80
CF80
CC00
EE80
7700
ENDCHAR
STARTCHAR Racute
ENCODING 340
SWIDTH 684 0
DWIDTH 9 0
BBX 9 12 0 0
BITMAP
0C00
1800
0000
FE00
6300
6300
6600
7E00
6600
6300
6300
F380
ENDCHAR
STARTCHAR racute
ENCODING 341
SWIDTH 440 0
DWIDTH 6 0
BBX 5 9 0 0
BITMAP
18
30
00
D8
78
60
60
60
F0
ENDCHAR
STARTCHAR Rcommaaccent
ENCODING 342
SWIDTH 684 0
DWIDTH 9 0
BBX 9 14 0 -5
BITMAP
FE00
6300
6300
6600
7E00
6600
6300
6300
F380
0000
1800
1800
0800
1000
ENDCHAR
STARTCHAR rcommaaccent
ENCODING 343
SWIDTH 440 0
DWIDTH 6 0
BBX 5 11 0 -5
BITMAP
D8
78
60
60
60
F0
00
60
60
20
40
ENDCHAR
STARTCHAR Rcaron
ENCODING 344
SWIDTH 684 0
DWIDTH 9 0
BBX 9 12 0 0
BITMAP
3400
1800
0000
FE00
6300
6300
6600
7E00
6600
6300
6300
F380
ENDCHAR
STARTCHAR rcaron
ENCODING 345
SWIDTH 440 0
DWIDTH 6 0
BBX 5 9 0 0
BITMAP
68
30
00
D8
78
60
60
60
F0
ENDCHAR
STARTCHAR Sacute
ENCODING 346
SWIDTH 561 0
DWIDTH 7 0
BBX 6 12 0 0
BITMAP
18
30
00
78
CC
C0
F0
78
1C
0C
CC
78
ENDCHAR
STARTCHAR sacute
ENCODING 347
SWIDTH 446 0
DWIDTH 6 0
BBX 5 9 0 0
BITMAP
30
60
00
78
C8
F0
78
98
F0
ENDCHAR
STARTCHAR Scircumflex
ENCODING 348
SWIDTH 561 0
DWIDTH 7 0
BBX 6 12 0 0
BITMAP
30
58
00
78
CC
C0
F0
78
1C
0C
CC
78
ENDCHAR
STARTCHAR scircumflex
ENCODING 349
SWIDTH 446 0
DWIDTH 6 0
BBX 5 9 0 0
BITMAP
60
B0
00
78
C8
F0
78
98
F0
ENDCHAR
STARTCHAR Scedilla
ENCODING 350
SWIDTH 561 0
DWIDTH 7 0
BBX 6 12 0 -3
BITMAP
78
CC
C0
F0
78
1C
0C
CC
78
10
08
18
ENDCHAR
STARTCHAR scedilla
ENCODING 351
SWIDTH 446 0
DWIDTH 6 0
BBX 5 9 0 -3
BITMAP
78
C8
F0
78
98
F0
20
10
30
ENDCHAR
STARTCHAR Scaron
ENCODING 352
SWIDTH 561 0
DWIDTH 7 0
BBX 6 10 0 0
BITMAP
68
30
00
78
CC
E0
78
1C
CC
78
ENDCHAR
STARTCHAR scaron
ENCODING 353
SWIDTH 446 0
DWIDTH 6 0
BBX 5 9 0 0
BITMAP
D0
60
00
78
C8
F0
78
98
F0
ENDCHAR
STARTCHAR Tcommaaccent
ENCODING 354
SWIDTH 624 0
DWIDTH 8 0
BBX 8 12 0 -3
BITMAP
FF
99
18
18
18
18
18
18
3C
10
08
18
ENDCHAR
STARTCHAR tcommaaccent
ENCODING 355
SWIDTH 370 0
DWIDTH 4 0
BBX 5 11 -1 -3
BITMAP
20
60
F8
60
60
60
60
38
20
10
30
ENDCHAR
STARTCHAR Tcaron
ENCODING 356
SWIDTH 624 0
DWIDTH 8 0
BBX 8 12 0 0
BITMAP
34
18
00
FF
99
18
18
18
18
18
18
3C
ENDCHAR
STARTCHAR tcaron
ENCODING 357
SWIDTH 604 0
DWIDTH 7 0
BBX 7 9 -1 0
BITMAP
06
26
62
FC
60
60
60
60
38
ENDCHAR
STARTCHAR Tbar
ENCODING 358
SWIDTH 624 0
DWIDTH 8 0
BBX 8 9 0 0
BITMAP
FF
99
18
18
3C
18
18
18
3C
ENDCHAR
STARTCHAR tbar
ENCODING 359
SWIDTH 370 0
DWIDTH 4 0
BBX 5 8 -1 0
BITMAP
20
60
F8
60
78
60
60
38
ENDCHAR
STARTCHAR Utilde
ENCODING 360
SWIDTH 786 0
DWIDTH 10 0
BBX 9 12 0 0
BITMAP
1A00
2C00
0000
F780
6300
6300
6300
6300
6300
6300
7700
3E00
ENDCHAR
STARTCHAR utilde
ENCODING 361
SWIDTH 629 0
DWIDTH 8 0
BBX 8 9 0 0
BITMAP
1A
2C
00
EE
66
66
66
76
3F
ENDCHAR
STARTCHAR Umacron
ENCODING 362
SWIDTH 786 0
DWIDTH 10 0
BBX 9 11 0 0
BITMAP
1E00
0000
F780
6300
6300
6300
6300
6300
6300
7700
3E00
ENDCHAR
STARTCHAR umacron
ENCODING 363
SWIDTH 629 0
DWIDTH 8 0
BBX 8 8 0 0
BITMAP
3C
00
EE
66
66
66
76
3F
ENDCHAR
STARTCHAR Ubreve
ENCODING 364
SWIDTH 786 0
DWIDTH 10 0
BBX 9 12 0 0
BITMAP
1200
0C00
0000
F780
6300
6300
6300
6300
6300
6300
7700
3E00
ENDCHAR
STARTCHAR ubreve
ENCODING 365
SWIDTH 629 0
DWIDTH 8 0
BBX 8 9 0 0
BITMAP
24
18
00
EE
66
66
66
76
3F
ENDCHAR
STARTCHAR Uring
ENCODING 366
SWIDTH 786 0
DWIDTH 10 0
BBX 9 13 0 0
BITMAP
0C00
1200
0C00
0000
F780
6300
6300
6300
6300
6300
6300
7700
3E00
ENDCHAR
STARTCHAR uring
ENCODING 367
SWIDTH 629 0
DWIDTH 8 0
BBX 8 10 0 0
BITMAP
18
24
18
00
EE
66
66
66
76
3F
ENDCHAR
STARTCHAR Uhungarumlaut
ENCODING 368
SWIDTH 786 0
DWIDTH 10 0
BBX 9 12 0 0
BITMAP
0A00
1400
0000
F780
6300
6300
6300
6300
6300
6300
7700
3E00
ENDCHAR
STARTCHAR uhungarumlaut
ENCODING 369
SWIDTH 629 0
DWIDTH 8 0
BBX 8 9 0 0
BITMAP
14
28
00
EE
66
66
66
76
3F
ENDCHAR
STARTCHAR Uogonek
ENCODING 370
SWIDTH 786 0
DWIDTH 10 0
BBX 9 12 0 -3
BITMAP
F780
6300
6300
6300
6300
6300
6300
7700
3E00
0800
1000
1C00
ENDCHAR
STARTCHAR uogonek
ENCODING 371
SWIDTH 629 0
DWIDTH 8 0
BBX 8 9 0 -3
BITMAP
EE
66
66
66
76
3F
08
10
1C
ENDCHAR
STARTCHAR Wcircumflex
ENCODING 372
SWIDTH 933 0
DWIDTH 12 0
BBX 13 12 -1 0
BITMAP
0600
0B00
0000
F338
6310
6310
35A0
35A0
35A0
3DE0
18C0
18C0
ENDCHAR
STARTCHAR wcircumflex
ENCODING 373
SWIDTH 774 0
DWIDTH 10 0
BBX 11 9 -1 0
BITMAP
0C00
1600
0000
E4E0
6640
7640
3B80
3B80
1100
ENDCHAR
STARTCHAR Ycircumflex
ENCODING 374
SWIDTH 617 0
DWIDTH 8 0
BBX 8 12 0 0
BITMAP
18
2C
00
F7
62
62
34
34
18
18
18
3C
ENDCHAR
STARTCHAR ycircumflex
ENCODING 375
SWIDTH 524 0
DWIDTH 6 0
BBX 7 12 -1 -3
BITMAP
30
58
00
EE
64
74
38
38
10
10
60
60
ENDCHAR
STARTCHAR Ydieresis
ENCODING 376
SWIDTH 617 0
DWIDTH 8 0
BBX 8 10 0 0
BITMAP
6C
6C
00
F7
62
34
34
18
18
3C
ENDCHAR
STARTCHAR Zacute
ENCODING 377
SWIDTH 614 0
DWIDTH 8 0
BBX 7 12 0 0
BITMAP
0C
18
00
FE
8E
0C
18
38
30
60
E2
FE
ENDCHAR
STARTCHAR zacute
ENCODING 378
SWIDTH 483 0
DWIDTH 6 0
BBX 5 9 0 0
BITMAP
30
60
00
F8
B8
30
60
E8
F8
ENDCHAR
STARTCHAR Zdotaccent
ENCODING 379
SWIDTH 614 0
DWIDTH 8 0
BBX 7 12 0 0
BITMAP
18
18
00
FE
8E
0C
18
38
30
60
E2
FE
ENDCHAR
STARTCHAR zdotaccent
ENCODING 380
SWIDTH 483 0
DWIDTH 6 0
BBX 5 9 0 0
BITMAP
30
30
00
F8
B8
30
60
E8
F8
ENDCHAR
STARTCHAR Zcaron
ENCODING 381
SWIDTH 614 0
DWIDTH 8 0
BBX 7 10 0 0
BITMAP
68
30
00
FE
8C
18
38
30
62
FE
ENDCHAR
STARTCHAR zcaron
ENCODING 382
SWIDTH 483 0
DWIDTH 6 0
BBX 5 9 0 0
BITMAP
D0
60
00
F8
B8
30
60
E8
F8
ENDCHAR
STARTCHAR uni0186
ENCODING 390
SWIDTH 689 0
DWIDTH 9 0
BBX 8 9 0 0
BITMAP
7C
C6
07
03
03
03
07
C6
7C
ENDCHAR
STARTCHAR uni0189
ENCODING 393
SWIDTH 783 0
DWIDTH 10 0
BBX 9 9 0 0
BITMAP
FE00
6300
6380
6180
F180
6180
6380
6300
FE00
ENDCHAR
STARTCHAR uni018E
ENCODING 398
SWIDTH 629 0
DWIDTH 8 0
BBX 7 9 0 0
BITMAP
FE
8C
0C
4C
7C
4C
0C
8C
FE
ENDCHAR
STARTCHAR florin
ENCODING 402
SWIDTH 560 0
DWIDTH 7 0
BBX 7 11 -1 -2
BITMAP
0E
1A
18
7E
18
18
30
30
30
B0
E0
ENDCHAR
STARTCHAR uni0197
ENCODING 407
SWIDTH 384 0
DWIDTH 5 0
BBX 4 9 0 0
BITMAP
F0
60
60
60
F0
60
60
60
F0
ENDCHAR
STARTCHAR uni019A
ENCODING 410
SWIDTH 309 0
DWIDTH 4 0
BBX 4 10 0 0
BITMAP
60
E0
60
60
F0
60
60
60
60
F0
ENDCHAR
STARTCHAR uni019D
ENCODING 413
SWIDTH 739 0
DWIDTH 9 0
BBX 10 12 -1 -3
BITMAP
71C0
3880
3880
2C80
2E80
2680
3380
3380
3180
3000
7000
E000
ENDCHAR
STARTCHAR uni019F
ENCODING 415
SWIDTH 768 0
DWIDTH 10 0
BBX 9 9 0 0
BITMAP
3E00
6300
E380
C180
FF80
C180
E380
6300
3E00
ENDCHAR
STARTCHAR Ohorn
ENCODING 416
SWIDTH 768 0
DWIDTH 10 0
BBX 10 9 0 0
BITMAP
3EC0
63C0
E3C0
C180
C180
C180
E380
6300
3E00
ENDCHAR
STARTCHAR ohorn
ENCODING 417
SWIDTH 585 0
DWIDTH 7 0
BBX 8 6 0 0
BITMAP
7B
DF
CD
CE
EC
78
ENDCHAR
STARTCHAR uni01A7
ENCODING 423
SWIDTH 561 0
DWIDTH 7 0
BBX 6 9 0 0
BITMAP
78
CC
0C
3C
78
E0
C0
CC
78
ENDCHAR
STARTCHAR uni01A8
ENCODING 424
SWIDTH 446 0
DWIDTH 6 0
BBX 5 6 0 0
BITMAP
F0
98
78
F0
C8
78
ENDCHAR
STARTCHAR uni01AE
ENCODING 430
SWIDTH 624 0
DWIDTH 8 0
BBX 8 12 0 -3
BITMAP
FF
99
18
18
18
18
18
18
18
18
1C
0E
ENDCHAR
STARTCHAR Uhorn
ENCODING 431
SWIDTH 786 0
DWIDTH 10 0
BBX 10 9 0 0
BITMAP
F7C0
63C0
6340
6380
6300
6300
6300
7700
3E00
ENDCHAR
STARTCHAR uhorn
ENCODING 432
SWIDTH 629 0
DWIDTH 8 0
BBX 10 6 0 0
BITMAP
EEC0
66C0
6640
6680
7600
3F00
ENDCHAR
STARTCHAR uni01B5
ENCODING 437
SWIDTH 614 0
DWIDTH 8 0
BBX 7 9 0 0
BITMAP
FE
8E
0C
18
3C
30
60
E2
FE
ENDCHAR
STARTCHAR uni01B6
ENCODING 438
SWIDTH 483 0
DWIDTH 6 0
BBX 5 6 0 0
BITMAP
F8
B8
78
60
E8
F8
ENDCHAR
STARTCHAR uni01BB
ENCODING 443
SWIDTH 560 0
DWIDTH 7 0
BBX 6 9 0 0
BITMAP
78
CC
CC
0C
FC
60
C4
FC
FC
ENDCHAR
STARTCHAR uni01BC
ENCODING 444
SWIDTH 560 0
DWIDTH 7 0
BBX 6 9 0 0
BITMAP
FC
F8
80
F8
9C
0C
CC
CC
78
ENDCHAR
STARTCHAR uni01C0
ENCODING 448
SWIDTH 284 0
DWIDTH 3 0
BBX 2 9 0 0
BITMAP
C0
C0
C0
C0
C0
C0
C0
C0
C0
ENDCHAR
STARTCHAR uni01C2
ENCODING 450
SWIDTH 600 0
DWIDTH 7 0
BBX 6 9 0 -1
BITMAP
30
30
30
FC
30
FC
30
30
30
ENDCHAR
STARTCHAR uni01C3
ENCODING 451
SWIDTH 278 0
DWIDTH 3 0
BBX 2 9 0 0
BITMAP
C0
C0
C0
C0
C0
C0
00
C0
C0
ENDCHAR
STARTCHAR uni01CD
ENCODING 461
SWIDTH 644 0
DWIDTH 8 0
BBX 9 12 -1 0
BITMAP
1A00
0C00
0000
0800
1C00
1C00
2E00
2600
3E00
4700
4300
E780
ENDCHAR
STARTCHAR uni01CE
ENCODING 462
SWIDTH 544 0
DWIDTH 7 0
BBX 6 9 1 0
BITMAP
68
30
00
70
D8
38
D8
D8
EC
ENDCHAR
STARTCHAR uni01CF
ENCODING 463
SWIDTH 384 0
DWIDTH 5 0
BBX 4 12 0 0
BITMAP
D0
60
00
F0
60
60
60
60
60
60
60
F0
ENDCHAR
STARTCHAR uni01D0
ENCODING 464
SWIDTH 316 0
DWIDTH 4 0
BBX 4 9 0 0
BITMAP
D0
60
00
E0
60
60
60
60
F0
ENDCHAR
STARTCHAR uni01D1
ENCODING 465
SWIDTH 768 0
DWIDTH 10 0
BBX 9 12 0 0
BITMAP
1A00
0C00
0000
3E00
6300
E380
C180
C180
C180
E380
6300
3E00
ENDCHAR
STARTCHAR uni01D2
ENCODING 466
SWIDTH 585 0
DWIDTH 7 0
BBX 6 9 0 0
BITMAP
68
30
00
78
DC
CC
CC
EC
78
ENDCHAR
STARTCHAR uni01D3
ENCODING 467
SWIDTH 786 0
DWIDTH 10 0
BBX 9 12 0 0
BITMAP
1A00
0C00
0000
F780
6300
6300
6300
6300
6300
6300
7700
3E00
ENDCHAR
STARTCHAR uni01D4
ENCODING 468
SWIDTH 629 0
DWIDTH 8 0
BBX 8 9 0 0
BITMAP
34
18
00
EE
66
66
66
76
3F
ENDCHAR
STARTCHAR uni01D5
ENCODING 469
SWIDTH 786 0
DWIDTH 10 0
BBX 9 12 0 0
BITMAP
1E00
0000
3600
3600
0000
F780
6300
6300
6300
6300
7700
3E00
ENDCHAR
STARTCHAR uni01D6
ENCODING 470
SWIDTH 629 0
DWIDTH 8 0
BBX 8 11 0 0
BITMAP
3C
00
6C
6C
00
EE
66
66
66
76
3F
ENDCHAR
STARTCHAR uni01D7
ENCODING 471
SWIDTH 786 0
DWIDTH 10 0
BBX 9 13 0 0
BITMAP
0C00
1800
0000
3600
3600
0000
F780
6300
6300
6300
6300
7700
3E00
ENDCHAR
STARTCHAR uni01D8
ENCODING 472
SWIDTH 629 0
DWIDTH 8 0
BBX 8 12 0 0
BITMAP
0C
18
00
6C
6C
00
EE
66
66
66
76
3F
ENDCHAR
STARTCHAR uni01D9
ENCODING 473
SWIDTH 786 0
DWIDTH 10 0
BBX 9 13 0 0
BITMAP
1A00
0C00
0000
3600
3600
0000
F780
6300
6300
6300
6300
7700
3E00
ENDCHAR
STARTCHAR uni01DA
ENCODING 474
SWIDTH 629 0
DWIDTH 8 0
BBX 8 12 0 0
BITMAP
34
18
00
6C
6C
00
EE
66
66
66
76
3F
ENDCHAR
STARTCHAR uni01DB
ENCODING 475
SWIDTH 786 0
DWIDTH 10 0
BBX 9 13 0 0
BITMAP
1800
0C00
0000
3600
3600
0000
F780
6300
6300
6300
6300
7700
3E00
ENDCHAR
STARTCHAR uni01DC
ENCODING 476
SWIDTH 629 0
DWIDTH 8 0
BBX 8 12 0 0
BITMAP
30
18
00
6C
6C
00
EE
66
66
66
76
3F
ENDCHAR
STARTCHAR uni01DD
ENCODING 477
SWIDTH 519 0
DWIDTH 6 0
BBX 5 6 0 0
BITMAP
70
B8
18
F8
D8
70
ENDCHAR
STARTCHAR uni01DE
ENCODING 478
SWIDTH 644 0
DWIDTH 8 0
BBX 9 12 -1 0
BITMAP
1E00
0000
3600
3600
0000
0800
1C00
1C00
2600
3E00
4300
E780
ENDCHAR
STARTCHAR uni01DF
ENCODING 479
SWIDTH 544 0
DWIDTH 7 0
BBX 6 11 0 0
BITMAP
78
00
D8
D8
00
70
D8
38
D8
D8
EC
ENDCHAR
STARTCHAR uni01E0
ENCODING 480
SWIDTH 644 0
DWIDTH 8 0
BBX 9 14 -1 0
BITMAP
1E00
0000
0C00
0C00
0000
0800
1C00
1C00
2E00
2600
3E00
4700
4300
E780
ENDCHAR
STARTCHAR uni01E1
ENCODING 481
SWIDTH 544 0
DWIDTH 7 0
BBX 6 11 1 0
BITMAP
78
00
30
30
00
70
D8
38
D8
D8
EC
ENDCHAR
STARTCHAR uni01E2
ENCODING 482
SWIDTH 879 0
DWIDTH 11 0
BBX 11 11 -1 0
BITMAP
0F00
0000
1FE0
0E20
1600
1640
27C0
3E40
4600
4620
EFE0
ENDCHAR
STARTCHAR uni01E3
ENCODING 483
SWIDTH 806 0
DWIDTH 10 0
BBX 8 8 1 0
BITMAP
3C
00
76
DB
3F
D8
DD
EE
ENDCHAR
STARTCHAR uni01E4
ENCODING 484
SWIDTH 726 0
DWIDTH 9 0
BBX 9 9 0 0
BITMAP
3E00
6300
E000
C000
C000
C780
E780
6300
3E00
ENDCHAR
STARTCHAR uni01E5
ENCODING 485
SWIDTH 533 0
DWIDTH 7 0
BBX 6 9 0 -3
BITMAP
7C
D8
D8
D8
60
78
FC
CC
78
ENDCHAR
STARTCHAR Gcaron
ENCODING 486
SWIDTH 726 0
DWIDTH 9 0
BBX 9 12 0 0
BITMAP
3400
1800
0000
3E00
6300
E000
C000
C000
C780
E300
6300
3E00
ENDCHAR
STARTCHAR gcaron
ENCODING 487
SWIDTH 533 0
DWIDTH 7 0
BBX 6 12 0 -3
BITMAP
68
30
00
7C
D8
D8
D8
60
78
9C
CC
78
ENDCHAR
STARTCHAR uni01E8
ENCODING 488
SWIDTH 707 0
DWIDTH 9 0
BBX 9 12 0 0
BITMAP
3400
1800
0000
F700
6600
6400
6800
7C00
6C00
6600
6700
F380
ENDCHAR
STARTCHAR uni01E9
ENCODING 489
SWIDTH 582 0
DWIDTH 7 0
BBX 7 13 0 0
BITMAP
D0
60
00
60
E0
60
60
6E
6C
78
78
6C
EE
ENDCHAR
STARTCHAR uni01EA
ENCODING 490
SWIDTH 768 0
DWIDTH 10 0
BBX 9 12 0 -3
BITMAP
3E00
6300
E380
C180
C180
C180
E380
6300
3E00
0800
1000
1C00
ENDCHAR
STARTCHAR uni01EB
ENCODING 491
SWIDTH 585 0
DWIDTH 7 0
BBX 6 9 0 -3
BITMAP
78
DC
CC
CC
EC
78
20
40
70
ENDCHAR
STARTCHAR uni01EC
ENCODING 492
SWIDTH 768 0
DWIDTH 10 0
BBX 9 14 0 -3
BITMAP
1E00
0000
3E00
6300
E380
C180
C180
C180
E380
6300
3E00
0800
1000
1C00
ENDCHAR
STARTCHAR uni01ED
ENCODING 493
SWIDTH 585 0
DWIDTH 7 0
BBX 6 11 0 -3
BITMAP
78
00
78
DC
CC
CC
EC
78
20
40
70
ENDCHAR
STARTCHAR uni01F0
ENCODING 496
SWIDTH 316 0
DWIDTH 4 0
BBX 5 12 -1 -3
BITMAP
68
30
00
70
30
30
30
30
30
30
70
E0
ENDCHAR
STARTCHAR uni01F4
ENCODING 500
SWIDTH 726 0
DWIDTH 9 0
BBX 9 12 0 0
BITMAP
0C00
1800
0000
3E00
6300
E000
C000
C000
C780
E300
6300
3E00
ENDCHAR
STARTCHAR uni01F5
ENCODING 501
SWIDTH 533 0
DWIDTH 7 0
BBX 6 12 0 -3
BITMAP
18
30
00
7C
D8
D8
D8
60
78
9C
CC
78
ENDCHAR
STARTCHAR uni01F8
ENCODING 504
SWIDTH 739 0
DWIDTH 9 0
BBX 9 12 0 0
BITMAP
3000
1800
0000
E380
7100
7100
5900
5D00
4D00
4700
4700
E300
ENDCHAR
STARTCHAR uni01F9
ENCODING 505
SWIDTH 638 0
DWIDTH 8 0
BBX 8 9 0 0
BITMAP
30
18
00
FC
6E
66
66
66
F7
ENDCHAR
STARTCHAR Aringacute
ENCODING 506
SWIDTH 644 0
DWIDTH 8 0
BBX 9 13 -1 0
BITMAP
0C00
1800
0000
1800
2400
1800
0800
1C00
1C00
2600
3E00
4300
E780
ENDCHAR
STARTCHAR aringacute
ENCODING 507
SWIDTH 544 0
DWIDTH 7 0
BBX 6 13 0 0
BITMAP
18
30
00
30
48
30
00
70
D8
38
D8
D8
EC
ENDCHAR
STARTCHAR AEacute
ENCODING 508
SWIDTH 879 0
DWIDTH 11 0
BBX 11 12 -1 0
BITMAP
0300
0600
0000
1FE0
0E20
1600
1640
27C0
3E40
4600
4620
EFE0
ENDCHAR
STARTCHAR aeacute
ENCODING 509
SWIDTH 806 0
DWIDTH 10 0
BBX 8 9 1 0
BITMAP
0C
18
00
76
DB
3F
D8
DD
EE
ENDCHAR
STARTCHAR Oslashacute
ENCODING 510
SWIDTH 768 0
DWIDTH 10 0
BBX 9 12 0 0
BITMAP
0600
0C00
0000
3E80
6300
E380
C580
C980
D180
E380
6300
BE00
ENDCHAR
STARTCHAR oslashacute
ENCODING 511
SWIDTH 585 0
DWIDTH 7 0
BBX 6 11 0 -1
BITMAP
18
30
00
04
78
DC
CC
CC
EC
78
80
ENDCHAR
STARTCHAR uni0200
ENCODING 512
SWIDTH 644 0
DWIDTH 8 0
BBX 9 12 -1 0
BITMAP
2800
1400
0000
0800
1C00
1C00
2E00
2600
3E00
4700
4300
E780
ENDCHAR
STARTCHAR uni0201
ENCODING 513
SWIDTH 544 0
DWIDTH 7 0
BBX 6 9 1 0
BITMAP
A0
50
00
70
D8
38
D8
D8
EC
ENDCHAR
STARTCHAR uni0202
ENCODING 514
SWIDTH 644 0
DWIDTH 8 0
BBX 9 12 -1 0
BITMAP
0C00
1200
0000
0800
1C00
1C00
2E00
2600
3E00
4700
4300
E780
ENDCHAR
STARTCHAR uni0203
ENCODING 515
SWIDTH 544 0
DWIDTH 7 0
BBX 6 9 1 0
BITMAP
30
48
00
70
D8
38
D8
D8
EC
ENDCHAR
STARTCHAR uni0204
ENCODING 516
SWIDTH 629 0
DWIDTH 8 0
BBX 7 12 0 0
BITMAP
50
28
00
FE
62
60
64
7C
64
60
62
FE
ENDCHAR
STARTCHAR uni0205
ENCODING 517
SWIDTH 519 0
DWIDTH 6 0
BBX 5 9 0 0
BITMAP
A0
50
00
70
D8
F8
C0
E8
70
ENDCHAR
STARTCHAR uni0206
ENCODING 518
SWIDTH 629 0
DWIDTH 8 0
BBX 7 12 0 0
BITMAP
30
48
00
FE
62
60
64
7C
64
60
62
FE
ENDCHAR
STARTCHAR uni0207
ENCODING 519
SWIDTH 519 0
DWIDTH 6 0
BBX 5 9 0 0
BITMAP
30
48
00
70
D8
F8
C0
E8
70
ENDCHAR
STARTCHAR uni0208
ENCODING 520
SWIDTH 384 0
DWIDTH 5 0
BBX 4 12 0 0
BITMAP
A0
50
00
F0
60
60
60
60
60
60
60
F0
ENDCHAR
STARTCHAR uni0209
ENCODING 521
SWIDTH 316 0
DWIDTH 4 0
BBX 5 9 -1 0
BITMAP
A0
50
00
70
30
30
30
30
78
ENDCHAR
STARTCHAR uni020A
ENCODING 522
SWIDTH 384 0
DWIDTH 5 0
BBX 4 12 0 0
BITMAP
60
90
00
F0
60
60
60
60
60
60
60
F0
ENDCHAR
STARTCHAR uni020B
ENCODING 523
SWIDTH 316 0
DWIDTH 4 0
BBX 4 9 0 0
BITMAP
60
90
00
E0
60
60
60
60
F0
ENDCHAR
STARTCHAR uni020C
ENCODING 524
SWIDTH 768 0
DWIDTH 10 0
BBX 9 12 0 0
BITMAP
2800
1400
0000
3E00
6300
E380
C180
C180
C180
E380
6300
3E00
ENDCHAR
STARTCHAR uni020D
ENCODING 525
SWIDTH 585 0
DWIDTH 7 0
BBX 6 9 0 0
BITMAP
50
28
00
78
DC
CC
CC
EC
78
ENDCHAR
STARTCHAR uni020E
ENCODING 526
SWIDTH 768 0
DWIDTH 10 0
BBX 9 12 0 0
BITMAP
0C00
1200
0000
3E00
6300
E380
C180
C180
C180
E380
6300
3E00
ENDCHAR
STARTCHAR uni020F
ENCODING 527
SWIDTH 585 0
DWIDTH 7 0
BBX 6 9 0 0
BITMAP
30
48
00
78
DC
CC
CC
EC
78
ENDCHAR
STARTCHAR uni0210
ENCODING 528
SWIDTH 684 0
DWIDTH 9 0
BBX 9 12 0 0
BITMAP
2800
1400
0000
FE00
6300
6300
6600
7E00
6600
6300
6300
F380
ENDCHAR
STARTCHAR uni0211
ENCODING 529
SWIDTH 440 0
DWIDTH 6 0
BBX 5 9 0 0
BITMAP
A0
50
00
D8
78
60
60
60
F0
ENDCHAR
STARTCHAR uni0212
ENCODING 530
SWIDTH 684 0
DWIDTH 9 0
BBX 9 12 0 0
BITMAP
1800
2400
0000
FE00
6300
6300
6600
7E00
6600
6300
6300
F380
ENDCHAR
STARTCHAR uni0213
ENCODING 531
SWIDTH 440 0
DWIDTH 6 0
BBX 5 9 0 0
BITMAP
30
48
00
D8
78
60
60
60
F0
ENDCHAR
STARTCHAR uni0214
ENCODING 532
SWIDTH 786 0
DWIDTH 10 0
BBX 9 12 0 0
BITMAP
2800
1400
0000
F780
6300
6300
6300
6300
6300
6300
7700
3E00
ENDCHAR
STARTCHAR uni0215
ENCODING 533
SWIDTH 629 0
DWIDTH 8 0
BBX 8 9 0 0
BITMAP
50
28
00
EE
66
66
66
76
3F
ENDCHAR
STARTCHAR uni0216
ENCODING 534
SWIDTH 786 0
DWIDTH 10 0
BBX 9 12 0 0
BITMAP
0C00
1200
0000
F780
6300
6300
6300
6300
6300
6300
7700
3E00
ENDCHAR
STARTCHAR uni0217
ENCODING 535
SWIDTH 629 0
DWIDTH 8 0
BBX 8 9 0 0
BITMAP
18
24
00
EE
66
66
66
76
3F
ENDCHAR
STARTCHAR Scommaaccent
ENCODING 536
SWIDTH 561 0
DWIDTH 7 0
BBX 6 14 0 -5
BITMAP
78
CC
C0
F0
78
1C
0C
CC
78
00
30
30
10
20
ENDCHAR
STARTCHAR scommaaccent
ENCODING 537
SWIDTH 446 0
DWIDTH 6 0
BBX 5 11 0 -5
BITMAP
78
C8
F0
78
98
F0
00
60
60
20
40
ENDCHAR
STARTCHAR Tcommaaccent
ENCODING 538
SWIDTH 624 0
DWIDTH 8 0
BBX 8 14 0 -5
BITMAP
FF
99
18
18
18
18
18
18
3C
00
18
18
08
10
ENDCHAR
STARTCHAR tcommaaccent
ENCODING 539
SWIDTH 370 0
DWIDTH 4 0
BBX 5 13 -1 -5
BITMAP
20
60
F8
60
60
60
60
38
00
30
30
10
20
ENDCHAR
STARTCHAR uni021E
ENCODING 542
SWIDTH 807 0
DWIDTH 10 0
BBX 9 12 0 0
BITMAP
1A00
0C00
0000
F780
6300
6300
6300
7F00
6300
6300
6300
F780
ENDCHAR
STARTCHAR uni021F
ENCODING 543
SWIDTH 631 0
DWIDTH 8 0
BBX 8 13 0 0
BITMAP
68
30
00
60
E0
60
60
6C
7E
66
66
66
F7
ENDCHAR
STARTCHAR uni0226
ENCODING 550
SWIDTH 644 0
DWIDTH 8 0
BBX 9 12 -1 0
BITMAP
0C00
0C00
0000
0800
1C00
1C00
2E00
2600
3E00
4700
4300
E780
ENDCHAR
STARTCHAR uni0227
ENCODING 551
SWIDTH 544 0
DWIDTH 7 0
BBX 6 9 1 0
BITMAP
30
30
00
70
D8
38
D8
D8
EC
ENDCHAR
STARTCHAR uni0228
ENCODING 552
SWIDTH 629 0
DWIDTH 8 0
BBX 7 12 0 -3
BITMAP
FE
62
60
64
7C
64
60
62
FE
10
08
18
ENDCHAR
STARTCHAR uni0229
ENCODING 553
SWIDTH 519 0
DWIDTH 6 0
BBX 5 9 0 -3
BITMAP
70
D8
F8
C0
E8
70
20
10
30
ENDCHAR
STARTCHAR uni022A
ENCODING 554
SWIDTH 768 0
DWIDTH 10 0
BBX 9 12 0 0
BITMAP
1E00
0000
3600
3600
0000
3E00
6300
C180
C180
C180
6300
3E00
ENDCHAR
STARTCHAR uni022B
ENCODING 555
SWIDTH 585 0
DWIDTH 7 0
BBX 6 11 0 0
BITMAP
78
00
D8
D8
00
78
DC
CC
CC
EC
78
ENDCHAR
STARTCHAR uni022C
ENCODING 556
SWIDTH 768 0
DWIDTH 10 0
BBX 9 12 0 0
BITMAP
1E00
0000
1A00
2C00
0000
3E00
6300
C180
C180
C180
6300
3E00
ENDCHAR
STARTCHAR uni022D
ENCODING 557
SWIDTH 585 0
DWIDTH 7 0
BBX 6 11 0 0
BITMAP
78
00
68
B0
00
78
DC
CC
CC
EC
78
ENDCHAR
STARTCHAR uni022E
ENCODING 558
SWIDTH 768 0
DWIDTH 10 0
BBX 9 12 0 0
BITMAP
0C00
0C00
0000
3E00
6300
E380
C180
C180
C180
E380
6300
3E00
ENDCHAR
STARTCHAR uni022F
ENCODING 559
SWIDTH 585 0
DWIDTH 7 0
BBX 6 9 0 0
BITMAP
30
30
00
78
DC
CC
CC
EC
78
ENDCHAR
STARTCHAR uni0230
ENCODING 560
SWIDTH 768 0
DWIDTH 10 0
BBX 9 14 0 0
BITMAP
1E00
0000
0C00
0C00
0000
3E00
6300
E380
C180
C180
C180
E380
6300
3E00
ENDCHAR
STARTCHAR uni0231
ENCODING 561
SWIDTH 585 0
DWIDTH 7 0
BBX 6 11 0 0
BITMAP
78
00
30
30
00
78
DC
CC
CC
EC
78
ENDCHAR
STARTCHAR uni0232
ENCODING 562
SWIDTH 617 0
DWIDTH 8 0
BBX 8 11 0 0
BITMAP
3C
00
F7
62
62
34
34
18
18
18
3C
ENDCHAR
STARTCHAR uni0233
ENCODING 563
SWIDTH 524 0
DWIDTH 6 0
BBX 7 11 -1 -3
BITMAP
78
00
EE
64
74
38
38
10
10
60
60
ENDCHAR
STARTCHAR uni0250
ENCODING 592
SWIDTH 544 0
DWIDTH 7 0
BBX 6 6 1 0
BITMAP
DC
6C
6C
70
6C
38
ENDCHAR
STARTCHAR uni0254
ENCODING 596
SWIDTH 494 0
DWIDTH 6 0
BBX 5 6 0 0
BITMAP
70
D8
18
18
B8
70
ENDCHAR
STARTCHAR uni0258
ENCODING 600
SWIDTH 519 0
DWIDTH 6 0
BBX 5 6 0 0
BITMAP
70
D8
F8
18
B8
70
ENDCHAR
STARTCHAR uni0259
ENCODING 601
SWIDTH 519 0
DWIDTH 6 0
BBX 5 6 0 0
BITMAP
70
B8
18
F8
D8
70
ENDCHAR
STARTCHAR uni025F
ENCODING 607
SWIDTH 342 0
DWIDTH 4 0
BBX 5 10 0 -4
BITMAP
78
30
30
30
30
78
30
30
D0
60
ENDCHAR
STARTCHAR uni0265
ENCODING 613
SWIDTH 631 0
DWIDTH 8 0
BBX 8 10 0 -4
BITMAP
EF
66
66
66
7E
36
06
06
07
06
ENDCHAR
STARTCHAR uni0275
ENCODING 629
SWIDTH 585 0
DWIDTH 7 0
BBX 6 6 0 0
BITMAP
78
DC
FC
CC
EC
78
ENDCHAR
STARTCHAR uni0279
ENCODING 633
SWIDTH 440 0
DWIDTH 6 0
BBX 5 6 0 0
BITMAP
78
30
30
30
F0
D8
ENDCHAR
STARTCHAR uni0287
ENCODING 647
SWIDTH 370 0
DWIDTH 4 0
BBX 5 8 -1 0
BITMAP
E0
30
30
30
30
F8
30
20
ENDCHAR
STARTCHAR uni0288
ENCODING 648
SWIDTH 370 0
DWIDTH 4 0
BBX 5 11 -1 -3
BITMAP
20
60
F8
60
60
60
60
60
60
70
38
ENDCHAR
STARTCHAR uni0289
ENCODING 649
SWIDTH 629 0
DWIDTH 8 0
BBX 8 6 0 0
BITMAP
EE
66
FF
66
76
3F
ENDCHAR
STARTCHAR uni028C
ENCODING 652
SWIDTH 520 0
DWIDTH 6 0
BBX 7 6 -1 0
BITMAP
10
38
38
5C
4C
EE
ENDCHAR
STARTCHAR uni028D
ENCODING 653
SWIDTH 774 0
DWIDTH 10 0
BBX 11 6 -1 0
BITMAP
1100
3B80
3B80
4DC0
4CC0
E4E0
ENDCHAR
STARTCHAR uni028E
ENCODING 654
SWIDTH 524 0
DWIDTH 6 0
BBX 7 9 -1 0
BITMAP
0C
0C
10
10
38
38
5C
4C
EE
ENDCHAR
STARTCHAR uni029E
ENCODING 670
SWIDTH 582 0
DWIDTH 7 0
BBX 7 10 0 -4
BITMAP
EE
6C
3C
3C
6C
EC
0C
0C
0E
0C
ENDCHAR
STARTCHAR uni02BB
ENCODING 699
SWIDTH 252 0
DWIDTH 3 0
BBX 2 4 0 5
BITMAP
40
80
C0
C0
ENDCHAR
STARTCHAR afii57929
ENCODING 700
SWIDTH 252 0
DWIDTH 3 0
BBX 2 4 0 5
BITMAP
C0
C0
40
80
ENDCHAR
STARTCHAR afii64937
ENCODING 701
SWIDTH 252 0
DWIDTH 3 0
BBX 2 4 0 5
BITMAP
C0
C0
80
40
ENDCHAR
STARTCHAR circumflex
ENCODING 710
SWIDTH 430 0
DWIDTH 5 0
BBX 4 2 0 7
BITMAP
60
B0
ENDCHAR
STARTCHAR caron
ENCODING 711
SWIDTH 430 0
DWIDTH 5 0
BBX 4 2 0 7
BITMAP
D0
60
ENDCHAR
STARTCHAR uni02C8
ENCODING 712
SWIDTH 252 0
DWIDTH 3 0
BBX 1 4 0 5
BITMAP
80
80
80
80
ENDCHAR
STARTCHAR macron
ENCODING 713
SWIDTH 430 0
DWIDTH 5 0
BBX 4 1 0 7
BITMAP
F0
ENDCHAR
STARTCHAR uni02CA
ENCODING 714
SWIDTH 430 0
DWIDTH 5 0
BBX 3 2 0 7
BITMAP
60
C0
ENDCHAR
STARTCHAR uni02CB
ENCODING 715
SWIDTH 430 0
DWIDTH 5 0
BBX 3 2 0 7
BITMAP
C0
60
ENDCHAR
STARTCHAR uni02CD
ENCODING 717
SWIDTH 430 0
DWIDTH 5 0
BBX 4 1 0 -2
BITMAP
F0
ENDCHAR
STARTCHAR uni02CE
ENCODING 718
SWIDTH 430 0
DWIDTH 5 0
BBX 3 2 0 -3
BITMAP
C0
60
ENDCHAR
STARTCHAR uni02CF
ENCODING 719
SWIDTH 430 0
DWIDTH 5 0
BBX 3 2 0 -3
BITMAP
60
C0
ENDCHAR
STARTCHAR breve
ENCODING 728
SWIDTH 430 0
DWIDTH 5 0
BBX 4 2 0 7
BITMAP
90
60
ENDCHAR
STARTCHAR dotaccent
ENCODING 729
SWIDTH 430 0
DWIDTH 5 0
BBX 2 2 1 7
BITMAP
C0
C0
ENDCHAR
STARTCHAR ring
ENCODING 730
SWIDTH 430 0
DWIDTH 5 0
BBX 4 3 0 7
BITMAP
60
90
60
ENDCHAR
STARTCHAR ogonek
ENCODING 731
SWIDTH 430 0
DWIDTH 5 0
BBX 3 3 1 -3
BITMAP
40
80
E0
ENDCHAR
STARTCHAR tilde
ENCODING 732
SWIDTH 430 0
DWIDTH 6 0
BBX 5 2 0 7
BITMAP
68
B0
ENDCHAR
STARTCHAR hungarumlaut
ENCODING 733
SWIDTH 430 0
DWIDTH 5 0
BBX 4 2 0 7
BITMAP
50
A0
ENDCHAR
STARTCHAR uni02EE
ENCODING 750
SWIDTH 473 0
DWIDTH 6 0
BBX 5 4 0 5
BITMAP
D8
D8
48
90
ENDCHAR
STARTCHAR uni037E
ENCODING 894
SWIDTH 280 0
DWIDTH 3 0
BBX 2 8 0 -2
BITMAP
C0
C0
00
00
C0
C0
40
80
ENDCHAR
STARTCHAR tonos
ENCODING 900
SWIDTH 430 0
DWIDTH 5 0
BBX 3 2 0 7
BITMAP
60
C0
ENDCHAR
STARTCHAR dieresistonos
ENCODING 901
SWIDTH 430 0
DWIDTH 6 0
BBX 5 5 0 7
BITMAP
30
60
00
D8
D8
ENDCHAR
STARTCHAR anoteleia
ENCODING 903
SWIDTH 280 0
DWIDTH 3 0
BBX 2 2 0 3
BITMAP
C0
C0
ENDCHAR
STARTCHAR mu
ENCODING 956
SWIDTH 629 0
DWIDTH 8 0
BBX 8 9 0 -3
BITMAP
EE
66
66
66
76
7F
40
60
60
ENDCHAR
STARTCHAR uni1E00
ENCODING 7680
SWIDTH 644 0
DWIDTH 8 0
BBX 9 13 -1 -4
BITMAP
0800
1C00
1C00
2E00
2600
3E00
4700
4300
E780
0000
0C00
1200
0C00
ENDCHAR
STARTCHAR uni1E01
ENCODING 7681
SWIDTH 544 0
DWIDTH 7 0
BBX 6 10 1 -4
BITMAP
70
D8
38
D8
D8
EC
00
30
48
30
ENDCHAR
STARTCHAR uni1E02
ENCODING 7682
SWIDTH 683 0
DWIDTH 9 0
BBX 8 12 0 0
BITMAP
18
18
00
FE
63
63
66
7E
63
63
67
FE
ENDCHAR
STARTCHAR uni1E03
ENCODING 7683
SWIDTH 605 0
DWIDTH 7 0
BBX 7 13 -1 0
BITMAP
60
60
00
60
E0
60
60
7C
6E
66
66
66
7C
ENDCHAR
STARTCHAR uni1E04
ENCODING 7684
SWIDTH 683 0
DWIDTH 9 0
BBX 8 12 0 -3
BITMAP
FE
63
63
66
7E
63
63
67
FE
00
18
18
ENDCHAR
STARTCHAR uni1E05
ENCODING 7685
SWIDTH 605 0
DWIDTH 7 0
BBX 7 13 -1 -3
BITMAP
60
E0
60
60
7C
6E
66
66
66
7C
00
18
18
ENDCHAR
STARTCHAR uni1E06
ENCODING 7686
SWIDTH 683 0
DWIDTH 9 0
BBX 8 11 0 -2
BITMAP
FE
63
63
66
7E
63
63
67
FE
00
3C
ENDCHAR
STARTCHAR uni1E07
ENCODING 7687
SWIDTH 605 0
DWIDTH 7 0
BBX 7 12 -1 -2
BITMAP
60
E0
60
60
7C
6E
66
66
66
7C
00
3C
ENDCHAR
STARTCHAR uni1E08
ENCODING 7688
SWIDTH 689 0
DWIDTH 9 0
BBX 8 15 0 -3
BITMAP
18
30
00
3E
63
E0
C0
C0
C0
E0
63
3E
10
08
18
ENDCHAR
STARTCHAR uni1E09
ENCODING 7689
SWIDTH 494 0
DWIDTH 6 0
BBX 5 12 0 -3
BITMAP
30
60
00
70
D8
C0
C0
E8
70
40
20
60
ENDCHAR
STARTCHAR uni1E0A
ENCODING 7690
SWIDTH 777 0
DWIDTH 10 0
BBX 9 12 0 0
BITMAP
1800
1800
0000
FE00
6300
6380
6180
6180
6180
6380
6300
FE00
ENDCHAR
STARTCHAR uni1E0B
ENCODING 7691
SWIDTH 605 0
DWIDTH 8 0
BBX 7 13 0 0
BITMAP
18
18
00
0C
1C
0C
0C
7C
CC
CC
CC
EC
7E
ENDCHAR
STARTCHAR uni1E0C
ENCODING 7692
SWIDTH 777 0
DWIDTH 10 0
BBX 9 12 0 -3
BITMAP
FE00
6300
6380
6180
6180
6180
6380
6300
FE00
0000
1800
1800
ENDCHAR
STARTCHAR uni1E0D
ENCODING 7693
SWIDTH 605 0
DWIDTH 8 0
BBX 7 13 0 -3
BITMAP
0C
1C
0C
0C
7C
CC
CC
CC
EC
7E
00
30
30
ENDCHAR
STARTCHAR uni1E0E
ENCODING 7694
SWIDTH 777 0
DWIDTH 10 0
BBX 9 11 0 -2
BITMAP
FE00
6300
6380
6180
6180
6180
6380
6300
FE00
0000
3C00
ENDCHAR
STARTCHAR uni1E0F
ENCODING 7695
SWIDTH 605 0
DWIDTH 8 0
BBX 7 12 0 -2
BITMAP
0C
1C
0C
0C
7C
CC
CC
CC
EC
7E
00
78
ENDCHAR
STARTCHAR uni1E10
ENCODING 7696
SWIDTH 777 0
DWIDTH 10 0
BBX 9 12 0 -3
BITMAP
FE00
6300
6380
6180
6180
6180
6380
6300
FE00
0800
0400
0C00
ENDCHAR
STARTCHAR uni1E11
ENCODING 7697
SWIDTH 605 0
DWIDTH 8 0
BBX 7 13 0 -3
BITMAP
0C
1C
0C
0C
7C
CC
CC
CC
EC
7E
10
08
18
ENDCHAR
STARTCHAR uni1E12
ENCODING 7698
SWIDTH 777 0
DWIDTH 10 0
BBX 9 12 0 -3
BITMAP
FE00
6300
6380
6180
6180
6180
6380
6300
FE00
0000
1800
2C00
ENDCHAR
STARTCHAR uni1E13
ENCODING 7699
SWIDTH 605 0
DWIDTH 8 0
BBX 7 13 0 -3
BITMAP
0C
1C
0C
0C
7C
CC
CC
CC
EC
7E
00
30
58
ENDCHAR
STARTCHAR uni1E14
ENCODING 7700
SWIDTH 629 0
DWIDTH 8 0
BBX 7 14 0 0
BITMAP
30
18
00
78
00
FE
62
60
64
7C
64
60
62
FE
ENDCHAR
STARTCHAR uni1E15
ENCODING 7701
SWIDTH 519 0
DWIDTH 6 0
BBX 5 11 0 0
BITMAP
60
30
00
78
00
70
D8
F8
C0
E8
70
ENDCHAR
STARTCHAR uni1E16
ENCODING 7702
SWIDTH 629 0
DWIDTH 8 0
BBX 7 14 0 0
BITMAP
18
30
00
78
00
FE
62
60
64
7C
64
60
62
FE
ENDCHAR
STARTCHAR uni1E17
ENCODING 7703
SWIDTH 519 0
DWIDTH 6 0
BBX 5 11 0 0
BITMAP
18
30
00
78
00
70
D8
F8
C0
E8
70
ENDCHAR
STARTCHAR uni1E18
ENCODING 7704
SWIDTH 629 0
DWIDTH 8 0
BBX 7 12 0 -3
BITMAP
FE
62
60
64
7C
64
60
62
FE
00
30
58
ENDCHAR
STARTCHAR uni1E19
ENCODING 7705
SWIDTH 519 0
DWIDTH 6 0
BBX 5 9 0 -3
BITMAP
70
D8
F8
C0
E8
70
00
60
B0
ENDCHAR
STARTCHAR uni1E1A
ENCODING 7706
SWIDTH 629 0
DWIDTH 8 0
BBX 7 12 0 -3
BITMAP
FE
62
60
64
7C
64
60
62
FE
00
34
58
ENDCHAR
STARTCHAR uni1E1B
ENCODING 7707
SWIDTH 519 0
DWIDTH 6 0
BBX 5 9 0 -3
BITMAP
70
D8
F8
C0
E8
70
00
68
B0
ENDCHAR
STARTCHAR uni1E1C
ENCODING 7708
SWIDTH 629 0
DWIDTH 8 0
BBX 7 15 0 -3
BITMAP
48
30
00
FE
62
60
64
7C
64
60
62
FE
10
08
18
ENDCHAR
STARTCHAR uni1E1D
ENCODING 7709
SWIDTH 519 0
DWIDTH 6 0
BBX 5 12 0 -3
BITMAP
48
30
00
70
D8
F8
C0
E8
70
20
10
30
ENDCHAR
STARTCHAR uni1E1E
ENCODING 7710
SWIDTH 593 0
DWIDTH 8 0
BBX 7 12 0 0
BITMAP
30
30
00
FE
62
60
64
7C
64
60
60
F0
ENDCHAR
STARTCHAR uni1E1F
ENCODING 7711
SWIDTH 342 0
DWIDTH 4 0
BBX 5 13 0 0
BITMAP
30
30
00
30
58
60
60
F0
60
60
60
60
F0
ENDCHAR
STARTCHAR uni1E20
ENCODING 7712
SWIDTH 726 0
DWIDTH 9 0
BBX 9 11 0 0
BITMAP
3C00
0000
3E00
6300
E000
C000
C000
C780
E300
6300
3E00
ENDCHAR
STARTCHAR uni1E21
ENCODING 7713
SWIDTH 533 0
DWIDTH 7 0
BBX 6 11 0 -3
BITMAP
78
00
7C
D8
D8
D8
60
78
9C
CC
78
ENDCHAR
STARTCHAR uni1E22
ENCODING 7714
SWIDTH 807 0
DWIDTH 10 0
BBX 9 12 0 0
BITMAP
0C00
0C00
0000
F780
6300
6300
6300
7F00
6300
6300
6300
F780
ENDCHAR
STARTCHAR uni1E23
ENCODING 7715
SWIDTH 631 0
DWIDTH 8 0
BBX 8 13 0 0
BITMAP
30
30
00
60
E0
60
60
6C
7E
66
66
66
F7
ENDCHAR
STARTCHAR uni1E24
ENCODING 7716
SWIDTH 807 0
DWIDTH 10 0
BBX 9 12 0 -3
BITMAP
F780
6300
6300
6300
7F00
6300
6300
6300
F780
0000
0C00
0C00
ENDCHAR
STARTCHAR uni1E25
ENCODING 7717
SWIDTH 631 0
DWIDTH 8 0
BBX 8 13 0 -3
BITMAP
60
E0
60
60
6C
7E
66
66
66
F7
00
18
18
ENDCHAR
STARTCHAR uni1E26
ENCODING 7718
SWIDTH 807 0
DWIDTH 10 0
BBX 9 12 0 0
BITMAP
3600
3600
0000
F780
6300
6300
6300
7F00
6300
6300
6300
F780
ENDCHAR
STARTCHAR uni1E27
ENCODING 7719
SWIDTH 631 0
DWIDTH 8 0
BBX 8 13 0 0
BITMAP
D8
D8
00
60
E0
60
60
6C
7E
66
66
66
F7
ENDCHAR
STARTCHAR uni1E28
ENCODING 7720
SWIDTH 807 0
DWIDTH 10 0
BBX 9 12 0 -3
BITMAP
F780
6300
6300
6300
7F00
6300
6300
6300
F780
0800
0400
0C00
ENDCHAR
STARTCHAR uni1E29
ENCODING 7721
SWIDTH 631 0
DWIDTH 8 0
BBX 8 13 0 -3
BITMAP
60
E0
60
60
6C
7E
66
66
66
F7
10
08
18
ENDCHAR
STARTCHAR uni1E2A
ENCODING 7722
SWIDTH 807 0
DWIDTH 10 0
BBX 9 12 0 -3
BITMAP
F780
6300
6300
6300
7F00
6300
6300
6300
F780
0000
1200
0C00
ENDCHAR
STARTCHAR uni1E2B
ENCODING 7723
SWIDTH 631 0
DWIDTH 8 0
BBX 8 13 0 -3
BITMAP
60
E0
60
60
6C
7E
66
66
66
F7
00
24
18
ENDCHAR
STARTCHAR uni1E2C
ENCODING 7724
SWIDTH 384 0
DWIDTH 5 0
BBX 5 12 -1 -3
BITMAP
78
30
30
30
30
30
30
30
78
00
68
B0
ENDCHAR
STARTCHAR uni1E2D
ENCODING 7725
SWIDTH 316 0
DWIDTH 4 0
BBX 5 12 -1 -3
BITMAP
30
30
00
70
30
30
30
30
78
00
68
B0
ENDCHAR
STARTCHAR uni1E2E
ENCODING 7726
SWIDTH 384 0
DWIDTH 5 0
BBX 5 13 0 0
BITMAP
30
60
00
D8
D8
00
F0
60
60
60
60
60
F0
ENDCHAR
STARTCHAR uni1E2F
ENCODING 7727
SWIDTH 316 0
DWIDTH 4 0
BBX 5 12 0 0
BITMAP
30
60
00
D8
D8
00
E0
60
60
60
60
F0
ENDCHAR
STARTCHAR uni1E30
ENCODING 7728
SWIDTH 707 0
DWIDTH 9 0
BBX 9 12 0 0
BITMAP
0C00
1800
0000
F700
6600
6400
6800
7C00
6C00
6600
6700
F380
ENDCHAR
STARTCHAR uni1E31
ENCODING 7729
SWIDTH 582 0
DWIDTH 7 0
BBX 7 13 0 0
BITMAP
30
60
00
60
E0
60
60
6E
6C
78
78
6C
EE
ENDCHAR
STARTCHAR uni1E32
ENCODING 7730
SWIDTH 707 0
DWIDTH 9 0
BBX 9 12 0 -3
BITMAP
F700
6600
6400
6800
7C00
6C00
6600
6700
F380
0000
1800
1800
ENDCHAR
STARTCHAR uni1E33
ENCODING 7731
SWIDTH 582 0
DWIDTH 7 0
BBX 7 13 0 -3
BITMAP
60
E0
60
60
6E
6C
78
78
6C
EE
00
30
30
ENDCHAR
STARTCHAR uni1E34
ENCODING 7732
SWIDTH 707 0
DWIDTH 9 0
BBX 9 11 0 -2
BITMAP
F700
6600
6400
6800
7C00
6C00
6600
6700
F380
0000
3C00
ENDCHAR
STARTCHAR uni1E35
ENCODING 7733
SWIDTH 582 0
DWIDTH 7 0
BBX 7 12 0 -2
BITMAP
60
E0
60
60
6E
6C
78
78
6C
EE
00
78
ENDCHAR
STARTCHAR uni1E36
ENCODING 7734
SWIDTH 585 0
DWIDTH 7 0
BBX 7 12 0 -3
BITMAP
F0
60
60
60
60
60
62
66
FE
00
18
18
ENDCHAR
STARTCHAR uni1E37
ENCODING 7735
SWIDTH 309 0
DWIDTH 4 0
BBX 4 13 0 -3
BITMAP
60
E0
60
60
60
60
60
60
60
F0
00
60
60
ENDCHAR
STARTCHAR uni1E38
ENCODING 7736
SWIDTH 585 0
DWIDTH 7 0
BBX 7 14 0 -3
BITMAP
78
00
F0
60
60
60
60
60
62
66
FE
00
18
18
ENDCHAR
STARTCHAR uni1E39
ENCODING 7737
SWIDTH 309 0
DWIDTH 4 0
BBX 4 15 0 -3
BITMAP
F0
00
60
E0
60
60
60
60
60
60
60
F0
00
60
60
ENDCHAR
STARTCHAR uni1E3A
ENCODING 7738
SWIDTH 585 0
DWIDTH 7 0
BBX 7 11 0 -2
BITMAP
F0
60
60
60
60
60
62
66
FE
00
3C
ENDCHAR
STARTCHAR uni1E3B
ENCODING 7739
SWIDTH 309 0
DWIDTH 4 0
BBX 4 12 0 -2
BITMAP
60
E0
60
60
60
60
60
60
60
F0
00
F0
ENDCHAR
STARTCHAR uni1E3C
ENCODING 7740
SWIDTH 585 0
DWIDTH 7 0
BBX 7 12 0 -3
BITMAP
F0
60
60
60
60
60
62
66
FE
00
18
2C
ENDCHAR
STARTCHAR uni1E3D
ENCODING 7741
SWIDTH 309 0
DWIDTH 4 0
BBX 4 13 0 -3
BITMAP
60
E0
60
60
60
60
60
60
60
F0
00
60
B0
ENDCHAR
STARTCHAR uni1E3E
ENCODING 7742
SWIDTH 918 0
DWIDTH 12 0
BBX 11 12 0 0
BITMAP
0600
0C00
0000
F1E0
71C0
71C0
5AC0
5AC0
5AC0
4CC0
4CC0
EDE0
ENDCHAR
STARTCHAR uni1E3F
ENCODING 7743
SWIDTH 948 0
DWIDTH 12 0
BBX 12 9 0 0
BITMAP
0600
0C00
0000
FDC0
6EE0
6660
6660
6660
F770
ENDCHAR
STARTCHAR uni1E40
ENCODING 7744
SWIDTH 918 0
DWIDTH 12 0
BBX 11 12 0 0
BITMAP
0600
0600
0000
F1E0
71C0
71C0
5AC0
5AC0
5AC0
4CC0
4CC0
EDE0
ENDCHAR
STARTCHAR uni1E41
ENCODING 7745
SWIDTH 948 0
DWIDTH 12 0
BBX 12 9 0 0
BITMAP
0600
0600
0000
FDC0
6EE0
6660
6660
6660
F770
ENDCHAR
STARTCHAR uni1E42
ENCODING 7746
SWIDTH 918 0
DWIDTH 12 0
BBX 11 12 0 -3
BITMAP
F1E0
71C0
71C0
5AC0
5AC0
5AC0
4CC0
4CC0
EDE0
0000
0600
0600
ENDCHAR
STARTCHAR uni1E43
ENCODING 7747
SWIDTH 948 0
DWIDTH 12 0
BBX 12 9 0 -3
BITMAP
FDC0
6EE0
6660
6660
6660
F770
0000
0600
0600
ENDCHAR
STARTCHAR uni1E44
ENCODING 7748
SWIDTH 739 0
DWIDTH 9 0
BBX 9 12 0 0
BITMAP
1800
1800
0000
E380
7100
7100
5900
5D00
4D00
4700
4700
E300
ENDCHAR
STARTCHAR uni1E45
ENCODING 7749
SWIDTH 638 0
DWIDTH 8 0
BBX 8 9 0 0
BITMAP
18
18
00
FC
6E
66
66
66
F7
ENDCHAR
STARTCHAR uni1E46
ENCODING 7750
SWIDTH 739 0
DWIDTH 9 0
BBX 9 12 0 -3
BITMAP
E380
7100
7100
5900
5D00
4D00
4700
4700
E300
0000
0C00
0C00
ENDCHAR
STARTCHAR uni1E47
ENCODING 7751
SWIDTH 638 0
DWIDTH 8 0
BBX 8 9 0 -3
BITMAP
FC
6E
66
66
66
F7
00
18
18
ENDCHAR
STARTCHAR uni1E48
ENCODING 7752
SWIDTH 739 0
DWIDTH 9 0
BBX 9 11 0 -2
BITMAP
E380
7100
7100
5900
5D00
4D00
4700
4700
E300
0000
1E00
ENDCHAR
STARTCHAR uni1E49
ENCODING 7753
SWIDTH 638 0
DWIDTH 8 0
BBX 8 8 0 -2
BITMAP
FC
6E
66
66
66
F7
00
3C
ENDCHAR
STARTCHAR uni1E4A
ENCODING 7754
SWIDTH 739 0
DWIDTH 9 0
BBX 9 12 0 -3
BITMAP
E380
7100
7100
5900
5D00
4D00
4700
4700
E300
0000
0C00
1600
ENDCHAR
STARTCHAR uni1E4B
ENCODING 7755
SWIDTH 638 0
DWIDTH 8 0
BBX 8 9 0 -3
BITMAP
FC
6E
66
66
66
F7
00
18
2C
ENDCHAR
STARTCHAR uni1E4C
ENCODING 7756
SWIDTH 768 0
DWIDTH 10 0
BBX 9 13 0 0
BITMAP
0C00
1800
0000
1A00
2C00
0000
3E00
6300
C180
C180
C180
6300
3E00
ENDCHAR
STARTCHAR uni1E4D
ENCODING 7757
SWIDTH 585 0
DWIDTH 7 0
BBX 6 12 0 0
BITMAP
18
30
00
68
B0
00
78
DC
CC
CC
EC
78
ENDCHAR
STARTCHAR uni1E4E
ENCODING 7758
SWIDTH 768 0
DWIDTH 10 0
BBX 9 13 0 0
BITMAP
3600
3600
0000
1A00
2C00
0000
3E00
6300
C180
C180
C180
6300
3E00
ENDCHAR
STARTCHAR uni1E4F
ENCODING 7759
SWIDTH 585 0
DWIDTH 7 0
BBX 6 12 0 0
BITMAP
D8
D8
00
68
B0
00
78
DC
CC
CC
EC
78
ENDCHAR
STARTCHAR uni1E50
ENCODING 7760
SWIDTH 768 0
DWIDTH 10 0
BBX 9 14 0 0
BITMAP
1800
0C00
0000
1E00
0000
3E00
6300
E380
C180
C180
C180
E380
6300
3E00
ENDCHAR
STARTCHAR uni1E51
ENCODING 7761
SWIDTH 585 0
DWIDTH 7 0
BBX 6 11 0 0
BITMAP
60
30
00
78
00
78
DC
CC
CC
EC
78
ENDCHAR
STARTCHAR uni1E52
ENCODING 7762
SWIDTH 768 0
DWIDTH 10 0
BBX 9 14 0 0
BITMAP
0C00
1800
0000
1E00
0000
3E00
6300
E380
C180
C180
C180
E380
6300
3E00
ENDCHAR
STARTCHAR uni1E53
ENCODING 7763
SWIDTH 585 0
DWIDTH 7 0
BBX 6 11 0 0
BITMAP
18
30
00
78
00
78
DC
CC
CC
EC
78
ENDCHAR
STARTCHAR uni1E54
ENCODING 7764
SWIDTH 650 0
DWIDTH 8 0
BBX 8 12 0 0
BITMAP
0C
18
00
FE
63
63
63
7E
60
60
60
F0
ENDCHAR
STARTCHAR uni1E55
ENCODING 7765
SWIDTH 615 0
DWIDTH 8 0
BBX 7 12 0 -3
BITMAP
18
30
00
FC
6E
66
66
66
7C
60
60
F0
ENDCHAR
STARTCHAR uni1E56
ENCODING 7766
SWIDTH 650 0
DWIDTH 8 0
BBX 8 12 0 0
BITMAP
18
18
00
FE
63
63
63
7E
60
60
60
F0
ENDCHAR
STARTCHAR uni1E57
ENCODING 7767
SWIDTH 615 0
DWIDTH 8 0
BBX 7 12 0 -3
BITMAP
18
18
00
FC
6E
66
66
66
7C
60
60
F0
ENDCHAR
STARTCHAR uni1E58
ENCODING 7768
SWIDTH 684 0
DWIDTH 9 0
BBX 9 12 0 0
BITMAP
1800
1800
0000
FE00
6300
6300
6600
7E00
6600
6300
6300
F380
ENDCHAR
STARTCHAR uni1E59
ENCODING 7769
SWIDTH 440 0
DWIDTH 6 0
BBX 5 9 0 0
BITMAP
30
30
00
D8
78
60
60
60
F0
ENDCHAR
STARTCHAR uni1E5A
ENCODING 7770
SWIDTH 684 0
DWIDTH 9 0
BBX 9 12 0 -3
BITMAP
FE00
6300
6300
6600
7E00
6600
6300
6300
F380
0000
1800
1800
ENDCHAR
STARTCHAR uni1E5B
ENCODING 7771
SWIDTH 440 0
DWIDTH 6 0
BBX 5 9 0 -3
BITMAP
D8
78
60
60
60
F0
00
60
60
ENDCHAR
STARTCHAR uni1E5C
ENCODING 7772
SWIDTH 684 0
DWIDTH 9 0
BBX 9 14 0 -3
BITMAP
3C00
0000
FE00
6300
6300
6600
7E00
6600
6300
6300
F380
0000
1800
1800
ENDCHAR
STARTCHAR uni1E5D
ENCODING 7773
SWIDTH 440 0
DWIDTH 6 0
BBX 5 11 0 -3
BITMAP
78
00
D8
78
60
60
60
F0
00
60
60
ENDCHAR
STARTCHAR uni1E5E
ENCODING 7774
SWIDTH 684 0
DWIDTH 9 0
BBX 9 11 0 -2
BITMAP
FE00
6300
6300
6600
7E00
6600
6300
6300
F380
0000
3C00
ENDCHAR
STARTCHAR uni1E5F
ENCODING 7775
SWIDTH 440 0
DWIDTH 6 0
BBX 5 8 0 -2
BITMAP
D8
78
60
60
60
F0
00
F0
ENDCHAR
STARTCHAR uni1E60
ENCODING 7776
SWIDTH 561 0
DWIDTH 7 0
BBX 6 12 0 0
BITMAP
30
30
00
78
CC
C0
F0
78
1C
0C
CC
78
ENDCHAR
STARTCHAR uni1E61
ENCODING 7777
SWIDTH 446 0
DWIDTH 6 0
BBX 5 9 0 0
BITMAP
30
30
00
78
C8
F0
78
98
F0
ENDCHAR
STARTCHAR uni1E62
ENCODING 7778
SWIDTH 561 0
DWIDTH 7 0
BBX 6 12 0 -3
BITMAP
78
CC
C0
F0
78
1C
0C
CC
78
00
30
30
ENDCHAR
STARTCHAR uni1E63
ENCODING 7779
SWIDTH 446 0
DWIDTH 6 0
BBX 5 9 0 -3
BITMAP
78
C8
F0
78
98
F0
00
60
60
ENDCHAR
STARTCHAR uni1E64
ENCODING 7780
SWIDTH 561 0
DWIDTH 7 0
BBX 6 15 0 0
BITMAP
30
30
00
18
30
00
78
CC
C0
F0
78
1C
0C
CC
78
ENDCHAR
STARTCHAR uni1E65
ENCODING 7781
SWIDTH 446 0
DWIDTH 6 0
BBX 5 12 0 0
BITMAP
30
30
00
30
60
00
78
C8
F0
78
98
F0
ENDCHAR
STARTCHAR uni1E66
ENCODING 7782
SWIDTH 561 0
DWIDTH 7 0
BBX 6 13 0 0
BITMAP
30
30
00
68
30
00
78
CC
E0
78
1C
CC
78
ENDCHAR
STARTCHAR uni1E67
ENCODING 7783
SWIDTH 446 0
DWIDTH 6 0
BBX 5 12 0 0
BITMAP
60
60
00
D0
60
00
78
C8
F0
78
98
F0
ENDCHAR
STARTCHAR uni1E68
ENCODING 7784
SWIDTH 561 0
DWIDTH 7 0
BBX 6 15 0 -3
BITMAP
30
30
00
78
CC
C0
F0
78
1C
0C
CC
78
00
30
30
ENDCHAR
STARTCHAR uni1E69
ENCODING 7785
SWIDTH 446 0
DWIDTH 6 0
BBX 5 12 0 -3
BITMAP
60
60
00
78
C8
F0
78
98
F0
00
60
60
ENDCHAR
STARTCHAR uni1E6A
ENCODING 7786
SWIDTH 624 0
DWIDTH 8 0
BBX 8 12 0 0
BITMAP
18
18
00
FF
99
18
18
18
18
18
18
3C
ENDCHAR
STARTCHAR uni1E6B
ENCODING 7787
SWIDTH 370 0
DWIDTH 4 0
BBX 5 11 -1 0
BITMAP
60
60
00
20
60
F8
60
60
60
60
38
ENDCHAR
STARTCHAR uni1E6C
ENCODING 7788
SWIDTH 624 0
DWIDTH 8 0
BBX 8 12 0 -3
BITMAP
FF
99
18
18
18
18
18
18
3C
00
18
18
ENDCHAR
STARTCHAR uni1E6D
ENCODING 7789
SWIDTH 370 0
DWIDTH 4 0
BBX 5 11 -1 -3
BITMAP
20
60
F8
60
60
60
60
38
00
30
30
ENDCHAR
STARTCHAR uni1E6E
ENCODING 7790
SWIDTH 624 0
DWIDTH 8 0
BBX 8 11 0 -2
BITMAP
FF
99
18
18
18
18
18
18
3C
00
3C
ENDCHAR
STARTCHAR uni1E6F
ENCODING 7791
SWIDTH 370 0
DWIDTH 4 0
BBX 5 10 -1 -2
BITMAP
20
60
F8
60
60
60
60
38
00
78
ENDCHAR
STARTCHAR uni1E70
ENCODING 7792
SWIDTH 624 0
DWIDTH 8 0
BBX 8 12 0 -3
BITMAP
FF
99
18
18
18
18
18
18
3C
00
18
2C
ENDCHAR
STARTCHAR uni1E71
ENCODING 7793
SWIDTH 370 0
DWIDTH 4 0
BBX 5 11 -1 -3
BITMAP
20
60
F8
60
60
60
60
38
00
30
58
ENDCHAR
STARTCHAR uni1E72
ENCODING 7794
SWIDTH 786 0
DWIDTH 10 0
BBX 9 12 0 -3
BITMAP
F780
6300
6300
6300
6300
6300
6300
7700
3E00
0000
3600
3600
ENDCHAR
STARTCHAR uni1E73
ENCODING 7795
SWIDTH 629 0
DWIDTH 8 0
BBX 8 9 0 -3
BITMAP
EE
66
66
66
76
3F
00
36
36
ENDCHAR
STARTCHAR uni1E74
ENCODING 7796
SWIDTH 786 0
DWIDTH 10 0
BBX 9 12 0 -3
BITMAP
F780
6300
6300
6300
6300
6300
6300
7700
3E00
0000
1A00
2C00
ENDCHAR
STARTCHAR uni1E75
ENCODING 7797
SWIDTH 629 0
DWIDTH 8 0
BBX 8 9 0 -3
BITMAP
EE
66
66
66
76
3F
00
1A
2C
ENDCHAR
STARTCHAR uni1E76
ENCODING 7798
SWIDTH 786 0
DWIDTH 10 0
BBX 9 12 0 -3
BITMAP
F780
6300
6300
6300
6300
6300
6300
7700
3E00
0000
0C00
1600
ENDCHAR
STARTCHAR uni1E77
ENCODING 7799
SWIDTH 629 0
DWIDTH 8 0
BBX 8 9 0 -3
BITMAP
EE
66
66
66
76
3F
00
18
2C
ENDCHAR
STARTCHAR uni1E78
ENCODING 7800
SWIDTH 786 0
DWIDTH 10 0
BBX 9 15 0 0
BITMAP
0C00
1800
0000
1A00
2C00
0000
F780
6300
6300
6300
6300
6300
6300
7700
3E00
ENDCHAR
STARTCHAR uni1E79
ENCODING 7801
SWIDTH 629 0
DWIDTH 8 0
BBX 8 12 0 0
BITMAP
0C
18
00
1A
2C
00
EE
66
66
66
76
3F
ENDCHAR
STARTCHAR uni1E7A
ENCODING 7802
SWIDTH 786 0
DWIDTH 10 0
BBX 9 14 0 0
BITMAP
3600
3600
0000
1E00
0000
F780
6300
6300
6300
6300
6300
6300
7700
3E00
ENDCHAR
STARTCHAR uni1E7B
ENCODING 7803
SWIDTH 629 0
DWIDTH 8 0
BBX 8 11 0 0
BITMAP
6C
6C
00
3C
00
EE
66
66
66
76
3F
ENDCHAR
STARTCHAR uni1E7C
ENCODING 7804
SWIDTH 645 0
DWIDTH 8 0
BBX 9 12 -1 0
BITMAP
1A00
2C00
0000
F380
6100
7100
3200
3200
3A00
1C00
1C00
0800
ENDCHAR
STARTCHAR uni1E7D
ENCODING 7805
SWIDTH 520 0
DWIDTH 6 0
BBX 7 9 -1 0
BITMAP
34
58
00
EE
64
74
38
38
10
ENDCHAR
STARTCHAR uni1E7E
ENCODING 7806
SWIDTH 645 0
DWIDTH 8 0
BBX 9 12 -1 -3
BITMAP
F380
6100
7100
3200
3200
3A00
1C00
1C00
0800
0000
0C00
0C00
ENDCHAR
STARTCHAR uni1E7F
ENCODING 7807
SWIDTH 520 0
DWIDTH 6 0
BBX 7 9 -1 -3
BITMAP
EE
64
74
38
38
10
00
18
18
ENDCHAR
STARTCHAR Wgrave
ENCODING 7808
SWIDTH 933 0
DWIDTH 12 0
BBX 13 12 -1 0
BITMAP
0C00
0600
0000
F338
6310
6310
35A0
35A0
35A0
3DE0
18C0
18C0
ENDCHAR
STARTCHAR wgrave
ENCODING 7809
SWIDTH 774 0
DWIDTH 10 0
BBX 11 9 -1 0
BITMAP
0C00
0600
0000
E4E0
6640
7640
3B80
3B80
1100
ENDCHAR
STARTCHAR Wacute
ENCODING 7810
SWIDTH 933 0
DWIDTH 12 0
BBX 13 12 -1 0
BITMAP
0300
0600
0000
F338
6310
6310
35A0
35A0
35A0
3DE0
18C0
18C0
ENDCHAR
STARTCHAR wacute
ENCODING 7811
SWIDTH 774 0
DWIDTH 10 0
BBX 11 9 -1 0
BITMAP
0600
0C00
0000
E4E0
6640
7640
3B80
3B80
1100
ENDCHAR
STARTCHAR Wdieresis
ENCODING 7812
SWIDTH 933 0
DWIDTH 12 0
BBX 13 12 -1 0
BITMAP
0D80
0D80
0000
F338
6310
6310
35A0
35A0
35A0
3DE0
18C0
18C0
ENDCHAR
STARTCHAR wdieresis
ENCODING 7813
SWIDTH 774 0
DWIDTH 10 0
BBX 11 9 -1 0
BITMAP
1B00
1B00
0000
E4E0
6640
7640
3B80
3B80
1100
ENDCHAR
STARTCHAR uni1E86
ENCODING 7814
SWIDTH 933 0
DWIDTH 12 0
BBX 13 12 -1 0
BITMAP
0600
0600
0000
F338
6310
6310
35A0
35A0
35A0
3DE0
18C0
18C0
ENDCHAR
STARTCHAR uni1E87
ENCODING 7815
SWIDTH 774 0
DWIDTH 10 0
BBX 11 9 -1 0
BITMAP
0C00
0C00
0000
E4E0
6640
7640
3B80
3B80
1100
ENDCHAR
STARTCHAR uni1E88
ENCODING 7816
SWIDTH 933 0
DWIDTH 12 0
BBX 13 12 -1 -3
BITMAP
F338
6310
6310
35A0
35A0
35A0
3DE0
18C0
18C0
0000
0300
0300
ENDCHAR
STARTCHAR uni1E89
ENCODING 7817
SWIDTH 774 0
DWIDTH 10 0
BBX 11 9 -1 -3
BITMAP
E4E0
6640
7640
3B80
3B80
1100
0000
0600
0600
ENDCHAR
STARTCHAR uni1E8A
ENCODING 7818
SWIDTH 634 0
DWIDTH 8 0
BBX 7 12 0 0
BITMAP
30
30
00
F6
64
64
38
38
38
4C
4C
DE
ENDCHAR
STARTCHAR uni1E8B
ENCODING 7819
SWIDTH 522 0
DWIDTH 7 0
BBX 6 9 0 0
BITMAP
30
30
00
EC
68
70
38
58
DC
ENDCHAR
STARTCHAR uni1E8C
ENCODING 7820
SWIDTH 634 0
DWIDTH 8 0
BBX 7 12 0 0
BITMAP
6C
6C
00
F6
64
64
38
38
38
4C
4C
DE
ENDCHAR
STARTCHAR uni1E8D
ENCODING 7821
SWIDTH 522 0
DWIDTH 7 0
BBX 6 9 0 0
BITMAP
D8
D8
00
EC
68
70
38
58
DC
ENDCHAR
STARTCHAR uni1E8E
ENCODING 7822
SWIDTH 617 0
DWIDTH 8 0
BBX 8 12 0 0
BITMAP
18
18
00
F7
62
62
34
34
18
18
18
3C
ENDCHAR
STARTCHAR uni1E8F
ENCODING 7823
SWIDTH 524 0
DWIDTH 6 0
BBX 7 12 -1 -3
BITMAP
30
30
00
EE
64
74
38
38
10
10
60
60
ENDCHAR
STARTCHAR uni1E90
ENCODING 7824
SWIDTH 614 0
DWIDTH 8 0
BBX 7 12 0 0
BITMAP
18
2C
00
FE
8E
0C
18
38
30
60
E2
FE
ENDCHAR
STARTCHAR uni1E91
ENCODING 7825
SWIDTH 483 0
DWIDTH 6 0
BBX 5 9 0 0
BITMAP
60
B0
00
F8
B8
30
60
E8
F8
ENDCHAR
STARTCHAR uni1E92
ENCODING 7826
SWIDTH 614 0
DWIDTH 8 0
BBX 7 12 0 -3
BITMAP
FE
8E
0C
18
38
30
60
E2
FE
00
30
30
ENDCHAR
STARTCHAR uni1E93
ENCODING 7827
SWIDTH 483 0
DWIDTH 6 0
BBX 5 9 0 -3
BITMAP
F8
B8
30
60
E8
F8
00
60
60
ENDCHAR
STARTCHAR uni1E94
ENCODING 7828
SWIDTH 614 0
DWIDTH 8 0
BBX 7 11 0 -2
BITMAP
FE
8E
0C
18
38
30
60
E2
FE
00
78
ENDCHAR
STARTCHAR uni1E95
ENCODING 7829
SWIDTH 483 0
DWIDTH 6 0
BBX 5 8 0 -2
BITMAP
F8
B8
30
60
E8
F8
00
F0
ENDCHAR
STARTCHAR uni1E96
ENCODING 7830
SWIDTH 631 0
DWIDTH 8 0
BBX 8 12 0 -2
BITMAP
60
E0
60
60
6C
7E
66
66
66
F7
00
3C
ENDCHAR
STARTCHAR uni1E97
ENCODING 7831
SWIDTH 370 0
DWIDTH 4 0
BBX 5 11 -1 0
BITMAP
D8
D8
00
20
60
F8
60
60
60
60
38
ENDCHAR
STARTCHAR uni1E98
ENCODING 7832
SWIDTH 774 0
DWIDTH 10 0
BBX 11 10 -1 0
BITMAP
0C00
1200
0C00
0000
E4E0
6640
7640
3B80
3B80
1100
ENDCHAR
STARTCHAR uni1E99
ENCODING 7833
SWIDTH 524 0
DWIDTH 6 0
BBX 7 13 -1 -3
BITMAP
30
48
30
00
EE
64
74
38
38
10
10
60
60
ENDCHAR
STARTCHAR uni1EA0
ENCODING 7840
SWIDTH 644 0
DWIDTH 8 0
BBX 9 12 -1 -3
BITMAP
0800
1C00
1C00
2E00
2600
3E00
4700
4300
E780
0000
0C00
0C00
ENDCHAR
STARTCHAR uni1EA1
ENCODING 7841
SWIDTH 544 0
DWIDTH 7 0
BBX 6 9 1 -3
BITMAP
70
D8
38
D8
D8
EC
00
30
30
ENDCHAR
STARTCHAR uni1EA4
ENCODING 7844
SWIDTH 644 0
DWIDTH 8 0
BBX 9 13 -1 0
BITMAP
0C00
1800
0000
1800
2C00
0000
0800
1C00
1C00
2600
3E00
4300
E780
ENDCHAR
STARTCHAR uni1EA5
ENCODING 7845
SWIDTH 544 0
DWIDTH 7 0
BBX 6 12 0 0
BITMAP
30
60
00
60
B0
00
70
D8
38
D8
D8
EC
ENDCHAR
STARTCHAR uni1EA6
ENCODING 7846
SWIDTH 644 0
DWIDTH 8 0
BBX 9 13 -1 0
BITMAP
3000
1800
0000
1800
2C00
0000
0800
1C00
1C00
2600
3E00
4300
E780
ENDCHAR
STARTCHAR uni1EA7
ENCODING 7847
SWIDTH 544 0
DWIDTH 7 0
BBX 6 12 0 0
BITMAP
60
30
00
60
B0
00
70
D8
38
D8
D8
EC
ENDCHAR
STARTCHAR uni1EAA
ENCODING 7850
SWIDTH 644 0
DWIDTH 8 0
BBX 9 13 -1 0
BITMAP
1A00
2C00
0000
1800
2C00
0000
0800
1C00
1C00
2600
3E00
4300
E780
ENDCHAR
STARTCHAR uni1EAB
ENCODING 7851
SWIDTH 544 0
DWIDTH 7 0
BBX 6 12 0 0
BITMAP
68
B0
00
60
B0
00
70
D8
38
D8
D8
EC
ENDCHAR
STARTCHAR uni1EAC
ENCODING 7852
SWIDTH 644 0
DWIDTH 8 0
BBX 9 15 -1 -3
BITMAP
1800
2C00
0000
0800
1C00
1C00
2E00
2600
3E00
4700
4300
E780
0000
0C00
0C00
ENDCHAR
STARTCHAR uni1EAD
ENCODING 7853
SWIDTH 544 0
DWIDTH 7 0
BBX 6 12 1 -3
BITMAP
30
58
00
70
D8
38
D8
D8
EC
00
30
30
ENDCHAR
STARTCHAR uni1EAE
ENCODING 7854
SWIDTH 644 0
DWIDTH 8 0
BBX 9 15 -1 0
BITMAP
0600
0C00
0000
1200
0C00
0000
0800
1C00
1C00
2E00
2600
3E00
4700
4300
E780
ENDCHAR
STARTCHAR uni1EAF
ENCODING 7855
SWIDTH 544 0
DWIDTH 7 0
BBX 6 12 1 0
BITMAP
18
30
00
48
30
00
70
D8
38
D8
D8
EC
ENDCHAR
STARTCHAR uni1EB0
ENCODING 7856
SWIDTH 644 0
DWIDTH 8 0
BBX 9 15 -1 0
BITMAP
1800
0C00
0000
1200
0C00
0000
0800
1C00
1C00
2E00
2600
3E00
4700
4300
E780
ENDCHAR
STARTCHAR uni1EB1
ENCODING 7857
SWIDTH 544 0
DWIDTH 7 0
BBX 6 12 1 0
BITMAP
60
30
00
48
30
00
70
D8
38
D8
D8
EC
ENDCHAR
STARTCHAR uni1EB4
ENCODING 7860
SWIDTH 644 0
DWIDTH 8 0
BBX 9 15 -1 0
BITMAP
1A00
2C00
0000
1200
0C00
0000
0800
1C00
1C00
2E00
2600
3E00
4700
4300
E780
ENDCHAR
STARTCHAR uni1EB5
ENCODING 7861
SWIDTH 544 0
DWIDTH 7 0
BBX 6 12 1 0
BITMAP
34
58
00
48
30
00
70
D8
38
D8
D8
EC
ENDCHAR
STARTCHAR uni1EB6
ENCODING 7862
SWIDTH 644 0
DWIDTH 8 0
BBX 9 15 -1 -3
BITMAP
1200
0C00
0000
0800
1C00
1C00
2E00
2600
3E00
4700
4300
E780
0000
0C00
0C00
ENDCHAR
STARTCHAR uni1EB7
ENCODING 7863
SWIDTH 544 0
DWIDTH 7 0
BBX 6 12 1 -3
BITMAP
48
30
00
70
D8
38
D8
D8
EC
00
30
30
ENDCHAR
STARTCHAR uni1EB8
ENCODING 7864
SWIDTH 629 0
DWIDTH 8 0
BBX 7 12 0 -3
BITMAP
FE
62
60
64
7C
64
60
62
FE
00
30
30
ENDCHAR
STARTCHAR uni1EB9
ENCODING 7865
SWIDTH 519 0
DWIDTH 6 0
BBX 5 9 0 -3
BITMAP
70
D8
F8
C0
E8
70
00
60
60
ENDCHAR
STARTCHAR uni1EBC
ENCODING 7868
SWIDTH 629 0
DWIDTH 8 0
BBX 7 12 0 0
BITMAP
34
58
00
FE
62
60
64
7C
64
60
62
FE
ENDCHAR
STARTCHAR uni1EBD
ENCODING 7869
SWIDTH 519 0
DWIDTH 6 0
BBX 5 9 0 0
BITMAP
68
B0
00
70
D8
F8
C0
E8
70
ENDCHAR
STARTCHAR uni1EBE
ENCODING 7870
SWIDTH 629 0
DWIDTH 8 0
BBX 7 13 0 0
BITMAP
18
30
00
30
58
00
FE
62
60
7C
60
62
FE
ENDCHAR
STARTCHAR uni1EBF
ENCODING 7871
SWIDTH 519 0
DWIDTH 6 0
BBX 5 12 0 0
BITMAP
30
60
00
60
B0
00
70
D8
F8
C0
E8
70
ENDCHAR
STARTCHAR uni1EC0
ENCODING 7872
SWIDTH 629 0
DWIDTH 8 0
BBX 7 13 0 0
BITMAP
60
30
00
30
58
00
FE
62
60
7C
60
62
FE
ENDCHAR
STARTCHAR uni1EC1
ENCODING 7873
SWIDTH 519 0
DWIDTH 6 0
BBX 5 12 0 0
BITMAP
C0
60
00
60
B0
00
70
D8
F8
C0
E8
70
ENDCHAR
STARTCHAR uni1EC4
ENCODING 7876
SWIDTH 629 0
DWIDTH 8 0
BBX 7 13 0 0
BITMAP
34
58
00
30
58
00
FE
62
60
7C
60
62
FE
ENDCHAR
STARTCHAR uni1EC5
ENCODING 7877
SWIDTH 519 0
DWIDTH 6 0
BBX 5 12 0 0
BITMAP
68
B0
00
60
B0
00
70
D8
F8
C0
E8
70
ENDCHAR
STARTCHAR uni1EC6
ENCODING 7878
SWIDTH 629 0
DWIDTH 8 0
BBX 7 15 0 -3
BITMAP
30
58
00
FE
62
60
64
7C
64
60
62
FE
00
30
30
ENDCHAR
STARTCHAR uni1EC7
ENCODING 7879
SWIDTH 519 0
DWIDTH 6 0
BBX 5 12 0 -3
BITMAP
60
B0
00
70
D8
F8
C0
E8
70
00
60
60
ENDCHAR
STARTCHAR uni1ECA
ENCODING 7882
SWIDTH 384 0
DWIDTH 5 0
BBX 4 12 0 -3
BITMAP
F0
60
60
60
60
60
60
60
F0
00
60
60
ENDCHAR
STARTCHAR uni1ECB
ENCODING 7883
SWIDTH 316 0
DWIDTH 4 0
BBX 4 12 0 -3
BITMAP
60
60
00
E0
60
60
60
60
F0
00
60
60
ENDCHAR
STARTCHAR uni1ECC
ENCODING 7884
SWIDTH 768 0
DWIDTH 10 0
BBX 9 12 0 -3
BITMAP
3E00
6300
E380
C180
C180
C180
E380
6300
3E00
0000
0C00
0C00
ENDCHAR
STARTCHAR uni1ECD
ENCODING 7885
SWIDTH 585 0
DWIDTH 7 0
BBX 6 9 0 -3
BITMAP
78
DC
CC
CC
EC
78
00
30
30
ENDCHAR
STARTCHAR uni1ED0
ENCODING 7888
SWIDTH 768 0
DWIDTH 10 0
BBX 9 13 0 0
BITMAP
0C00
1800
0000
1800
2C00
0000
3E00
6300
C180
C180
C180
6300
3E00
ENDCHAR
STARTCHAR uni1ED1
ENCODING 7889
SWIDTH 585 0
DWIDTH 7 0
BBX 6 12 0 0
BITMAP
18
30
00
30
58
00
78
DC
CC
CC
EC
78
ENDCHAR
STARTCHAR uni1ED2
ENCODING 7890
SWIDTH 768 0
DWIDTH 10 0
BBX 9 13 0 0
BITMAP
3000
1800
0000
1800
2C00
0000
3E00
6300
C180
C180
C180
6300
3E00
ENDCHAR
STARTCHAR uni1ED3
ENCODING 7891
SWIDTH 585 0
DWIDTH 7 0
BBX 6 12 0 0
BITMAP
60
30
00
30
58
00
78
DC
CC
CC
EC
78
ENDCHAR
STARTCHAR uni1ED6
ENCODING 7894
SWIDTH 768 0
DWIDTH 10 0
BBX 9 13 0 0
BITMAP
1A00
2C00
0000
1800
2C00
0000
3E00
6300
C180
C180
C180
6300
3E00
ENDCHAR
STARTCHAR uni1ED7
ENCODING 7895
SWIDTH 585 0
DWIDTH 7 0
BBX 6 12 0 0
BITMAP
34
58
00
30
58
00
78
DC
CC
CC
EC
78
ENDCHAR
STARTCHAR uni1ED8
ENCODING 7896
SWIDTH 768 0
DWIDTH 10 0
BBX 9 15 0 -3
BITMAP
1800
2C00
0000
3E00
6300
E380
C180
C180
C180
E380
6300
3E00
0000
0C00
0C00
ENDCHAR
STARTCHAR uni1ED9
ENCODING 7897
SWIDTH 585 0
DWIDTH 7 0
BBX 6 12 0 -3
BITMAP
30
58
00
78
DC
CC
CC
EC
78
00
30
30
ENDCHAR
STARTCHAR uni1EDA
ENCODING 7898
SWIDTH 768 0
DWIDTH 10 0
BBX 10 12 0 0
BITMAP
0600
0C00
0000
3EC0
63C0
E3C0
C180
C180
C180
E380
6300
3E00
ENDCHAR
STARTCHAR uni1EDB
ENCODING 7899
SWIDTH 585 0
DWIDTH 7 0
BBX 8 9 0 0
BITMAP
0C
18
00
7B
DF
CD
CE
EC
78
ENDCHAR
STARTCHAR uni1EDC
ENCODING 7900
SWIDTH 768 0
DWIDTH 10 0
BBX 10 12 0 0
BITMAP
0C00
0600
0000
3EC0
63C0
E3C0
C180
C180
C180
E380
6300
3E00
ENDCHAR
STARTCHAR uni1EDD
ENCODING 7901
SWIDTH 585 0
DWIDTH 7 0
BBX 8 9 0 0
BITMAP
30
18
00
7B
DF
CD
CE
EC
78
ENDCHAR
STARTCHAR uni1EE0
ENCODING 7904
SWIDTH 768 0
DWIDTH 10 0
BBX 10 12 0 0
BITMAP
0D00
1600
0000
3EC0
63C0
E3C0
C180
C180
C180
E380
6300
3E00
ENDCHAR
STARTCHAR uni1EE1
ENCODING 7905
SWIDTH 585 0
DWIDTH 7 0
BBX 8 9 0 0
BITMAP
1A
2C
00
7B
DF
CD
CE
EC
78
ENDCHAR
STARTCHAR uni1EE2
ENCODING 7906
SWIDTH 768 0
DWIDTH 10 0
BBX 10 12 0 -3
BITMAP
3EC0
63C0
E3C0
C180
C180
C180
E380
6300
3E00
0000
0C00
0C00
ENDCHAR
STARTCHAR uni1EE3
ENCODING 7907
SWIDTH 585 0
DWIDTH 7 0
BBX 8 9 0 -3
BITMAP
7B
DF
CD
CE
EC
78
00
30
30
ENDCHAR
STARTCHAR uni1EE4
ENCODING 7908
SWIDTH 786 0
DWIDTH 10 0
BBX 9 12 0 -3
BITMAP
F780
6300
6300
6300
6300
6300
6300
7700
3E00
0000
0C00
0C00
ENDCHAR
STARTCHAR uni1EE5
ENCODING 7909
SWIDTH 629 0
DWIDTH 8 0
BBX 8 9 0 -3
BITMAP
EE
66
66
66
76
3F
00
18
18
ENDCHAR
STARTCHAR uni1EE8
ENCODING 7912
SWIDTH 786 0
DWIDTH 10 0
BBX 10 12 0 0
BITMAP
0600
0C00
0000
F7C0
63C0
6340
6380
6300
6300
6300
7700
3E00
ENDCHAR
STARTCHAR uni1EE9
ENCODING 7913
SWIDTH 629 0
DWIDTH 8 0
BBX 10 9 0 0
BITMAP
0600
0C00
0000
EEC0
66C0
6640
6680
7600
3F00
ENDCHAR
STARTCHAR uni1EEA
ENCODING 7914
SWIDTH 786 0
DWIDTH 10 0
BBX 10 12 0 0
BITMAP
1800
0C00
0000
F7C0
63C0
6340
6380
6300
6300
6300
7700
3E00
ENDCHAR
STARTCHAR uni1EEB
ENCODING 7915
SWIDTH 629 0
DWIDTH 8 0
BBX 10 9 0 0
BITMAP
1800
0C00
0000
EEC0
66C0
6640
6680
7600
3F00
ENDCHAR
STARTCHAR uni1EEE
ENCODING 7918
SWIDTH 786 0
DWIDTH 10 0
BBX 10 12 0 0
BITMAP
0D00
1600
0000
F7C0
63C0
6340
6380
6300
6300
6300
7700
3E00
ENDCHAR
STARTCHAR uni1EEF
ENCODING 7919
SWIDTH 629 0
DWIDTH 8 0
BBX 10 9 0 0
BITMAP
0D00
1600
0000
EEC0
66C0
6640
6680
7600
3F00
ENDCHAR
STARTCHAR uni1EF0
ENCODING 7920
SWIDTH 786 0
DWIDTH 10 0
BBX 10 12 0 -3
BITMAP
F7C0
63C0
6340
6380
6300
6300
6300
7700
3E00
0000
0C00
0C00
ENDCHAR
STARTCHAR uni1EF1
ENCODING 7921
SWIDTH 629 0
DWIDTH 8 0
BBX 10 9 0 -3
BITMAP
EEC0
66C0
6640
6680
7600
3F00
0000
0C00
0C00
ENDCHAR
STARTCHAR Ygrave
ENCODING 7922
SWIDTH 617 0
DWIDTH 8 0
BBX 8 12 0 0
BITMAP
30
18
00
F7
62
62
34
34
18
18
18
3C
ENDCHAR
STARTCHAR ygrave
ENCODING 7923
SWIDTH 524 0
DWIDTH 6 0
BBX 7 12 -1 -3
BITMAP
30
18
00
EE
64
74
38
38
10
10
60
60
ENDCHAR
STARTCHAR uni1EF4
ENCODING 7924
SWIDTH 617 0
DWIDTH 8 0
BBX 8 12 0 -3
BITMAP
F7
62
62
34
34
18
18
18
3C
00
18
18
ENDCHAR
STARTCHAR uni1EF5
ENCODING 7925
SWIDTH 524 0
DWIDTH 6 0
BBX 7 12 -1 -6
BITMAP
EE
64
74
38
38
10
10
60
60
00
30
30
ENDCHAR
STARTCHAR uni1EF8
ENCODING 7928
SWIDTH 617 0
DWIDTH 8 0
BBX 8 12 0 0
BITMAP
1A
2C
00
F7
62
62
34
34
18
18
18
3C
ENDCHAR
STARTCHAR uni1EF9
ENCODING 7929
SWIDTH 524 0
DWIDTH 6 0
BBX 7 12 -1 -3
BITMAP
34
58
00
EE
64
74
38
38
10
10
60
60
ENDCHAR
STARTCHAR uni2000
ENCODING 8192
SWIDTH 500 0
DWIDTH 6 0
BBX 1 1 0 0
BITMAP
00
ENDCHAR
STARTCHAR uni2001
ENCODING 8193
SWIDTH 1000 0
DWIDTH 13 0
BBX 1 1 0 0
BITMAP
00
ENDCHAR
STARTCHAR uni2002
ENCODING 8194
SWIDTH 500 0
DWIDTH 6 0
BBX 1 1 0 0
BITMAP
00
ENDCHAR
STARTCHAR uni2003
ENCODING 8195
SWIDTH 1000 0
DWIDTH 13 0
BBX 1 1 0 0
BITMAP
00
ENDCHAR
STARTCHAR uni2004
ENCODING 8196
SWIDTH 333 0
DWIDTH 4 0
BBX 1 1 0 0
BITMAP
00
ENDCHAR
STARTCHAR uni2005
ENCODING 8197
SWIDTH 250 0
DWIDTH 3 0
BBX 1 1 0 0
BITMAP
00
ENDCHAR
STARTCHAR uni2006
ENCODING 8198
SWIDTH 167 0
DWIDTH 2 0
BBX 1 1 0 0
BITMAP
00
ENDCHAR
STARTCHAR uni2007
ENCODING 8199
SWIDTH 560 0
DWIDTH 7 0
BBX 1 1 0 0
BITMAP
00
ENDCHAR
STARTCHAR uni2008
ENCODING 8200
SWIDTH 280 0
DWIDTH 3 0
BBX 1 1 0 0
BITMAP
00
ENDCHAR
STARTCHAR uni2009
ENCODING 8201
SWIDTH 200 0
DWIDTH 3 0
BBX 1 1 0 0
BITMAP
00
ENDCHAR
STARTCHAR uni200A
ENCODING 8202
SWIDTH 100 0
DWIDTH 1 0
BBX 1 1 0 0
BITMAP
00
ENDCHAR
STARTCHAR uni200B
ENCODING 8203
SWIDTH 0 0
DWIDTH 0 0
BBX 1 1 0 0
BITMAP
00
ENDCHAR
STARTCHAR uni2010
ENCODING 8208
SWIDTH 392 0
DWIDTH 5 0
BBX 3 1 1 3
BITMAP
E0
ENDCHAR
STARTCHAR uni2011
ENCODING 8209
SWIDTH 392 0
DWIDTH 5 0
BBX 3 1 1 3
BITMAP
E0
ENDCHAR
STARTCHAR figuredash
ENCODING 8210
SWIDTH 500 0
DWIDTH 6 0
BBX 6 1 0 3
BITMAP
FC
ENDCHAR
STARTCHAR endash
ENCODING 8211
SWIDTH 500 0
DWIDTH 6 0
BBX 6 1 0 3
BITMAP
FC
ENDCHAR
STARTCHAR emdash
ENCODING 8212
SWIDTH 1000 0
DWIDTH 12 0
BBX 12 1 0 3
BITMAP
FFF0
ENDCHAR
STARTCHAR afii00208
ENCODING 8213
SWIDTH 1000 0
DWIDTH 12 0
BBX 12 1 0 3
BITMAP
FFF0
ENDCHAR
STARTCHAR quoteleft
ENCODING 8216
SWIDTH 252 0
DWIDTH 3 0
BBX 2 4 0 5
BITMAP
40
80
C0
C0
ENDCHAR
STARTCHAR quoteright
ENCODING 8217
SWIDTH 252 0
DWIDTH 3 0
BBX 2 4 0 5
BITMAP
C0
C0
40
80
ENDCHAR
STARTCHAR quotesinglbase
ENCODING 8218
SWIDTH 252 0
DWIDTH 3 0
BBX 2 4 0 -2
BITMAP
C0
C0
40
80
ENDCHAR
STARTCHAR quotereversed
ENCODING 8219
SWIDTH 252 0
DWIDTH 3 0
BBX 2 4 0 5
BITMAP
C0
C0
80
40
ENDCHAR
STARTCHAR quotedblleft
ENCODING 8220
SWIDTH 473 0
DWIDTH 6 0
BBX 5 4 0 5
BITMAP
48
90
D8
D8
ENDCHAR
STARTCHAR quotedblright
ENCODING 8221
SWIDTH 473 0
DWIDTH 6 0
BBX 5 4 0 5
BITMAP
D8
D8
48
90
ENDCHAR
STARTCHAR quotedblbase
ENCODING 8222
SWIDTH 473 0
DWIDTH 6 0
BBX 5 4 0 -2
BITMAP
D8
D8
48
90
ENDCHAR
STARTCHAR uni201F
ENCODING 8223
SWIDTH 473 0
DWIDTH 6 0
BBX 5 4 0 5
BITMAP
D8
D8
90
48
ENDCHAR
STARTCHAR dagger
ENCODING 8224
SWIDTH 510 0
DWIDTH 6 0
BBX 6 11 0 -2
BITMAP
30
30
30
FC
30
30
30
30
30
30
30
ENDCHAR
STARTCHAR daggerdbl
ENCODING 8225
SWIDTH 486 0
DWIDTH 6 0
BBX 6 11 0 -2
BITMAP
30
30
30
FC
30
30
30
FC
30
30
30
ENDCHAR
STARTCHAR bullet
ENCODING 8226
SWIDTH 455 0
DWIDTH 6 0
BBX 5 5 0 2
BITMAP
70
F8
F8
F8
70
ENDCHAR
STARTCHAR ellipsis
ENCODING 8230
SWIDTH 1000 0
DWIDTH 12 0
BBX 10 2 0 0
BITMAP
CCC0
CCC0
ENDCHAR
STARTCHAR perthousand
ENCODING 8240
SWIDTH 1289 0
DWIDTH 16 0
BBX 15 9 0 0
BITMAP
6100
9E00
9200
9400
698C
0A52
1252
2252
218C
ENDCHAR
STARTCHAR guilsinglleft
ENCODING 8249
SWIDTH 287 0
DWIDTH 4 0
BBX 3 5 0 1
BITMAP
20
40
C0
40
20
ENDCHAR
STARTCHAR guilsinglright
ENCODING 8250
SWIDTH 287 0
DWIDTH 4 0
BBX 3 5 0 1
BITMAP
80
40
60
40
80
ENDCHAR
STARTCHAR fraction
ENCODING 8260
SWIDTH 100 0
DWIDTH 1 0
BBX 6 9 -2 0
BITMAP
04
08
08
10
20
20
40
80
80
ENDCHAR
STARTCHAR oneinferior
ENCODING 8321
SWIDTH 402 0
DWIDTH 5 0
BBX 4 6 0 -3
BITMAP
60
E0
60
60
60
F0
ENDCHAR
STARTCHAR twoinferior
ENCODING 8322
SWIDTH 402 0
DWIDTH 5 0
BBX 4 6 0 -3
BITMAP
E0
B0
30
40
F0
F0
ENDCHAR
STARTCHAR threeinferior
ENCODING 8323
SWIDTH 402 0
DWIDTH 5 0
BBX 4 6 0 -3
BITMAP
E0
B0
60
30
B0
E0
ENDCHAR
STARTCHAR uni20A5
ENCODING 8357
SWIDTH 948 0
DWIDTH 12 0
BBX 12 9 0 -1
BITMAP
0300
0300
FFC0
6EE0
6660
6660
6E60
FF70
0C00
ENDCHAR
STARTCHAR uni20A6
ENCODING 8358
SWIDTH 739 0
DWIDTH 9 0
BBX 9 9 0 0
BITMAP
E380
7100
7100
7F00
5D00
7F00
4700
4700
E300
ENDCHAR
STARTCHAR uni20A9
ENCODING 8361
SWIDTH 933 0
DWIDTH 12 0
BBX 13 9 -1 0
BITMAP
F338
6310
6310
3FE0
35A0
3FE0
3DE0
18C0
18C0
ENDCHAR
STARTCHAR Euro
ENCODING 8364
SWIDTH 689 0
DWIDTH 9 0
BBX 9 9 -1 0
BITMAP
1F00
3180
7000
FC00
6000
FC00
7000
3180
1F00
ENDCHAR
STARTCHAR uni20AD
ENCODING 8365
SWIDTH 707 0
DWIDTH 9 0
BBX 9 9 0 0
BITMAP
F700
6600
6400
6800
FF80
6C00
6600
6700
F380
ENDCHAR
STARTCHAR uni2103
ENCODING 8451
SWIDTH 1065 0
DWIDTH 14 0
BBX 13 9 0 0
BITMAP
61F0
9318
9700
6600
0600
0600
0700
0318
01F0
ENDCHAR
STARTCHAR uni2109
ENCODING 8457
SWIDTH 969 0
DWIDTH 13 0
BBX 12 9 0 0
BITMAP
67F0
9310
9300
6320
03E0
0320
0300
0300
0780
ENDCHAR
STARTCHAR trademark
ENCODING 8482
SWIDTH 1090 0
DWIDTH 14 0
BBX 14 6 0 3
BITMAP
FF1C
B3B8
33B8
32D8
32D8
763C
ENDCHAR
STARTCHAR uni212A
ENCODING 8490
SWIDTH 707 0
DWIDTH 9 0
BBX 9 9 0 0
BITMAP
F700
6600
6400
6800
7C00
6C00
6600
6700
F380
ENDCHAR
STARTCHAR uni212B
ENCODING 8491
SWIDTH 644 0
DWIDTH 8 0
BBX 9 10 -1 0
BITMAP
1800
2400
1800
0800
1C00
1C00
2600
3E00
4300
E780
ENDCHAR
STARTCHAR uni2132
ENCODING 8498
SWIDTH 593 0
DWIDTH 8 0
BBX 7 9 0 0
BITMAP
1E
0C
0C
4C
7C
4C
0C
8C
FE
ENDCHAR
STARTCHAR universal
ENCODING 8704
SWIDTH 644 0
DWIDTH 8 0
BBX 9 9 -1 0
BITMAP
E780
4300
4700
3E00
2600
2E00
1C00
1C00
0800
ENDCHAR
STARTCHAR existential
ENCODING 8707
SWIDTH 629 0
DWIDTH 8 0
BBX 7 9 0 0
BITMAP
FE
8C
0C
4C
7C
4C
0C
8C
FE
ENDCHAR
STARTCHAR uni2204
ENCODING 8708
SWIDTH 629 0
DWIDTH 8 0
BBX 7 9 0 0
BITMAP
FE
8C
0C
5C
7C
5C
3C
BC
FE
ENDCHAR
STARTCHAR minus
ENCODING 8722
SWIDTH 600 0
DWIDTH 7 0
BBX 6 1 0 3
BITMAP
FC
ENDCHAR
STARTCHAR fraction
ENCODING 8725
SWIDTH 100 0
DWIDTH 1 0
BBX 6 9 -2 0
BITMAP
04
08
08
10
20
20
40
80
80
ENDCHAR
STARTCHAR periodcentered
ENCODING 8729
SWIDTH 280 0
DWIDTH 3 0
BBX 2 2 0 3
BITMAP
C0
C0
ENDCHAR
STARTCHAR uni2236
ENCODING 8758
SWIDTH 280 0
DWIDTH 3 0
BBX 2 6 0 0
BITMAP
C0
C0
00
00
C0
C0
ENDCHAR
STARTCHAR uni2259
ENCODING 8793
SWIDTH 600 0
DWIDTH 7 0
BBX 6 6 0 2
BITMAP
30
58
00
FC
00
FC
ENDCHAR
STARTCHAR uni225A
ENCODING 8794
SWIDTH 600 0
DWIDTH 7 0
BBX 6 6 0 2
BITMAP
68
30
00
FC
00
FC
ENDCHAR
STARTCHAR notequal
ENCODING 8800
SWIDTH 600 0
DWIDTH 7 0
BBX 6 9 0 -1
BITMAP
18
18
18
FC
30
FC
60
60
60
ENDCHAR
STARTCHAR equivalence
ENCODING 8801
SWIDTH 600 0
DWIDTH 7 0
BBX 6 5 0 1
BITMAP
FC
00
FC
00
FC
ENDCHAR
STARTCHAR uni2262
ENCODING 8802
SWIDTH 600 0
DWIDTH 7 0
BBX 6 9 0 -1
BITMAP
18
18
FC
30
FC
30
FC
60
60
ENDCHAR
STARTCHAR lessequal
ENCODING 8804
SWIDTH 600 0
DWIDTH 7 0
BBX 6 7 0 -1
BITMAP
0C
30
C0
30
0C
00
FC
ENDCHAR
STARTCHAR greaterequal
ENCODING 8805
SWIDTH 600 0
DWIDTH 7 0
BBX 6 7 0 -1
BITMAP
C0
30
0C
30
C0
00
FC
ENDCHAR
STARTCHAR uni226E
ENCODING 8814
SWIDTH 600 0
DWIDTH 7 0
BBX 6 9 0 -1
BITMAP
18
18
1C
30
F0
30
6C
60
60
ENDCHAR
STARTCHAR uni226F
ENCODING 8815
SWIDTH 600 0
DWIDTH 7 0
BBX 6 9 0 -1
BITMAP
18
18
D8
30
3C
30
E0
60
60
ENDCHAR
STARTCHAR uni2270
ENCODING 8816
SWIDTH 600 0
DWIDTH 7 0
BBX 6 9 0 -2
BITMAP
18
1C
38
F0
30
3C
60
FC
60
ENDCHAR
STARTCHAR uni2271
ENCODING 8817
SWIDTH 600 0
DWIDTH 7 0
BBX 6 9 0 -2
BITMAP
18
D8
38
3C
30
F0
60
FC
60
ENDCHAR
STARTCHAR fi
ENCODING -1
SWIDTH 639 0
DWIDTH 8 0
BBX 8 10 0 0
BITMAP
3C
46
66
60
FE
66
66
66
66
FF
ENDCHAR
STARTCHAR fl
ENCODING -1
SWIDTH 639 0
DWIDTH 8 0
BBX 8 10 0 0
BITMAP
3A
4E
66
66
FE
66
66
66
66
FF
ENDCHAR
ENDFONT
